JosefinSlab-LightItalic-TTF.ufo
<glyph name="parenleft" format="1">
  <advance width="400"/>
  <unicode hex="0028"/>
  <outline>
    <contour>
      <point x="141" y="292" type="qcurve" name="ah01"/>
      <point x="151" y="367"/>
      <point x="198" y="503"/>
      <point x="229.5" y="561.0" type="qcurve" smooth="yes" name="inserted"/>
      <point x="261" y="619"/>
      <point x="333" y="714"/>
      <point x="369" y="747" type="qcurve" name="sh02"/>
      <point x="372" y="741"/>
      <point x="379" y="730"/>
      <point x="383" y="724" type="qcurve" name="sh01"/>
      <point x="350" y="691"/>
      <point x="282" y="601" name="fh01"/>
      <point x="252.5" y="546.0" type="qcurve" smooth="yes" name="inserted"/>
      <point x="223" y="491"/>
      <point x="179" y="363"/>
      <point x="169" y="292" type="qcurve" name="sh03"/>
      <point x="159" y="221"/>
      <point x="167" y="93"/>
      <point x="181.0" y="38.0" type="qcurve" smooth="yes" name="inserted"/>
      <point x="195" y="-17" name="fh02"/>
      <point x="238" y="-107"/>
      <point x="262" y="-140" type="qcurve" name="sh04"/>
      <point x="257" y="-146"/>
      <point x="247" y="-157"/>
      <point x="242" y="-163" type="qcurve" name="sh05"/>
      <point x="215" y="-130"/>
      <point x="169" y="-35"/>
      <point x="154.0" y="23.0" type="qcurve" smooth="yes" name="inserted"/>
      <point x="139" y="81"/>
      <point x="130" y="217"/>
    </contour>
  </outline>
</glyph>
<glyph name="parenright" format="1">
  <advance width="400"/>
  <unicode hex="0029"/>
  <outline>
    <contour>
      <point x="286" y="291" type="qcurve" name="ah01"/>
      <point x="275" y="216"/>
      <point x="228" y="80"/>
      <point x="196.5" y="22.0" type="qcurve" smooth="yes" name="inserted"/>
      <point x="165" y="-36"/>
      <point x="93" y="-131"/>
      <point x="57" y="-164" type="qcurve" name="sh02"/>
      <point x="53" y="-158"/>
      <point x="46" y="-147"/>
      <point x="43" y="-141" type="qcurve" name="sh01"/>
      <point x="76" y="-108"/>
      <point x="144" y="-18"/>
      <point x="173.5" y="37.0" type="qcurve" smooth="yes" name="inserted"/>
      <point x="203" y="92"/>
      <point x="247" y="220"/>
      <point x="257" y="291" type="qcurve" name="sh03"/>
      <point x="267" y="362"/>
      <point x="259" y="490" name="fh01"/>
      <point x="245.0" y="545.0" type="qcurve" smooth="yes" name="inserted"/>
      <point x="231" y="600" name="fh02"/>
      <point x="188" y="690"/>
      <point x="164" y="723" type="qcurve" name="sh04"/>
      <point x="169" y="729"/>
      <point x="179" y="740"/>
      <point x="184" y="746" type="qcurve" name="sh05"/>
      <point x="211" y="713"/>
      <point x="257" y="618"/>
      <point x="272.0" y="560.0" type="qcurve" smooth="yes" name="inserted"/>
      <point x="287" y="502"/>
      <point x="296" y="366"/>
    </contour>
  </outline>
</glyph>
<glyph name="hyphen" format="1">
  <advance width="300"/>
  <unicode hex="002D"/>
  <outline>
    <contour>
      <point x="51" y="177" type="line" name="dh01"/>
      <point x="54" y="204" type="line" name="sv01"/>
      <point x="238" y="204" type="line" name="dh02"/>
      <point x="235" y="177" type="line"/>
    </contour>
  </outline>
</glyph>
<glyph name="slash" format="1">
  <advance width="334"/>
  <unicode hex="002F"/>
  <outline>
    <contour>
      <point x="-36" y="-19" type="line" name="dh01"/>
      <point x="61" y="171"/>
      <point x="251" y="546"/>
      <point x="348" y="736" type="qcurve" name="sh01"/>
      <point x="376" y="736" type="line" name="dh02"/>
      <point x="279" y="546"/>
      <point x="89" y="171"/>
      <point x="-8" y="-19" type="qcurve" name="sh02"/>
    </contour>
  </outline>
</glyph>
<glyph name="two" format="1">
  <advance width="500"/>
  <unicode hex="0032"/>
  <outline>
    <contour>
      <point x="79" y="27" type="qcurve" name="sh01"/>
      <point x="388" y="27" type="line" name="sh04"/>
      <point x="404" y="136" type="line" name="sh03"/>
      <point x="431" y="136" type="line" name="sh02"/>
      <point x="411" y="0" type="line" name="sh05"/>
      <point x="6" y="0" type="line" name="dh01"/>
      <point x="79" y="62" name="fh01"/>
      <point x="216" y="182" name="fh02"/>
      <point x="270.5" y="239.0" type="qcurve" smooth="yes" name="inserted"/>
      <point x="325" y="296" name="fh03"/>
      <point x="396" y="402" name="fh04"/>
      <point x="403" y="449" type="qcurve" name="sh06"/>
      <point x="410" y="501"/>
      <point x="390" y="571" name="fh05"/>
      <point x="370.0" y="592.0" type="qcurve" smooth="yes" name="inserted"/>
      <point x="350" y="613" name="fh06"/>
      <point x="299" y="631"/>
      <point x="275" y="631" type="qcurve" name="sv01"/>
      <point x="228" y="631"/>
      <point x="162" y="597"/>
      <point x="141.0" y="572.5" type="qcurve" smooth="yes" name="inserted"/>
      <point x="120" y="548"/>
      <point x="99" y="490"/>
      <point x="95" y="466" type="qcurve" name="sh08"/>
      <point x="90.5" y="431.5" name="inserted"/>
      <point x="103.0" y="375.5"/>
      <point x="120" y="354" type="qcurve" name="sh09"/>
      <point x="100" y="338" type="line" name="sh10"/>
      <point x="80" y="361"/>
      <point x="62" y="426"/>
      <point x="67" y="466" type="qcurve" name="sh07"/>
      <point x="73" y="506" name="fh07"/>
      <point x="107" y="576" name="fh08"/>
      <point x="134.0" y="602.0" type="qcurve" smooth="yes" name="inserted"/>
      <point x="161" y="628" name="fh09"/>
      <point x="234" y="658" name="fh10"/>
      <point x="279" y="658" type="qcurve" name="at01"/>
      <point x="319" y="658"/>
      <point x="382" y="628" name="fh11"/>
      <point x="402.0" y="601.5" type="qcurve" smooth="yes" name="inserted"/>
      <point x="422" y="575" name="fh12"/>
      <point x="438" y="503"/>
      <point x="432" y="461" type="qcurve" name="dh02"/>
      <point x="424" y="405"/>
      <point x="355" y="294" name="fh13"/>
      <point x="305.0" y="240.0" type="qcurve" smooth="yes" name="inserted"/>
      <point x="255" y="186" name="fh14"/>
      <point x="136" y="79" name="fh15"/>
    </contour>
  </outline>
</glyph>
<glyph name="five" format="1">
  <advance width="543"/>
  <unicode hex="0035"/>
  <outline>
    <contour>
      <point x="476" y="650" type="line" name="sh01"/>
      <point x="463" y="559" type="line"/>
      <point x="436" y="559" type="line" name="sv01"/>
      <point x="445" y="623" type="line"/>
      <point x="213" y="623" type="line" name="sh03"/>
      <point x="179" y="382" type="line" name="sh02"/>
      <point x="200" y="390"/>
      <point x="243" y="401"/>
      <point x="265" y="401" type="qcurve" name="iv01"/>
      <point x="308" y="401"/>
      <point x="379" y="369" name="fh01"/>
      <point x="403.5" y="341.5" type="qcurve" smooth="yes" name="inserted"/>
      <point x="428" y="314" name="fh02"/>
      <point x="451" y="240"/>
      <point x="445" y="198" type="qcurve" name="dh02"/>
      <point x="439" y="155"/>
      <point x="395" y="80" name="fh03"/>
      <point x="363.0" y="52.0" type="qcurve" smooth="yes" name="inserted"/>
      <point x="331" y="24" name="fh04"/>
      <point x="250" y="-8" name="fh05"/>
      <point x="208" y="-8" type="qcurve" name="ab01"/>
      <point x="166" y="-8"/>
      <point x="98" y="22"/>
      <point x="74" y="49" type="qcurve" name="dh01"/>
      <point x="98" y="68" type="line" name="sh04"/>
      <point x="118" y="45" name="fv01"/>
      <point x="175" y="19"/>
      <point x="210" y="19" type="qcurve" name="sv02"/>
      <point x="247" y="19"/>
      <point x="318" y="48" name="fh06"/>
      <point x="346.0" y="72.5" type="qcurve" smooth="yes" name="inserted"/>
      <point x="374" y="97" name="fh07"/>
      <point x="412" y="162" name="fh08"/>
      <point x="417" y="198" type="qcurve" name="sh05"/>
      <point x="422" y="234"/>
      <point x="402" y="298" name="fh09"/>
      <point x="381.0" y="322.0" type="qcurve" smooth="yes" name="inserted"/>
      <point x="360" y="346" name="fh10"/>
      <point x="297" y="373"/>
      <point x="260" y="373" type="qcurve" name="sv03"/>
      <point x="225" y="373"/>
      <point x="164" y="350"/>
      <point x="144" y="331" type="qcurve" name="ih01"/>
      <point x="189" y="650" type="line" name="sh06"/>
    </contour>
  </outline>
</glyph>
<glyph name="six" format="1">
  <advance width="520"/>
  <unicode hex="0036"/>
  <outline>
    <contour>
      <point x="61" y="196" type="qcurve" name="sh01"/>
      <point x="55" y="159"/>
      <point x="74" y="95" name="fh01"/>
      <point x="94.5" y="71.0" type="qcurve" smooth="yes" name="inserted"/>
      <point x="115" y="47" name="fh02"/>
      <point x="176" y="19"/>
      <point x="213" y="19" type="qcurve" name="sv01"/>
      <point x="250" y="19"/>
      <point x="320" y="47" name="fh03"/>
      <point x="348.0" y="71.0" type="qcurve" smooth="yes" name="inserted"/>
      <point x="376" y="95" name="fh04"/>
      <point x="414" y="159" name="fh05"/>
      <point x="419" y="196" type="qcurve" name="sh02"/>
      <point x="424" y="233"/>
      <point x="404" y="297" name="fh06"/>
      <point x="383.0" y="321.0" type="qcurve" smooth="yes" name="inserted"/>
      <point x="362" y="345" name="fh07"/>
      <point x="300" y="373"/>
      <point x="263" y="373" type="qcurve" name="sv02"/>
      <point x="226" y="373"/>
      <point x="158" y="345" name="fh08"/>
      <point x="130.5" y="321.0" type="qcurve" smooth="yes" name="inserted"/>
      <point x="103" y="297" name="fh09"/>
      <point x="66" y="233"/>
    </contour>
    <contour>
      <point x="33" y="194" type="qcurve" name="dh01"/>
      <point x="43" y="266" name="fh10"/>
      <point x="122" y="391" name="fh11"/>
      <point x="177.5" y="445.5" type="qcurve" smooth="yes" name="inserted"/>
      <point x="233" y="500" name="fh12"/>
      <point x="364" y="593" name="fh13"/>
      <point x="426" y="634" type="qcurve" name="sh04"/>
      <point x="430" y="628"/>
      <point x="437" y="616"/>
      <point x="441" y="611" type="qcurve" name="sh03"/>
      <point x="310" y="531" name="fh14"/>
      <point x="157" y="387" name="fh15"/>
      <point x="125" y="336" type="qcurve" name="ih01"/>
      <point x="152" y="365"/>
      <point x="226" y="401"/>
      <point x="268" y="401" type="qcurve" name="iv01"/>
      <point x="311" y="401"/>
      <point x="382" y="369" name="fh16"/>
      <point x="406.0" y="341.0" type="qcurve" smooth="yes" name="inserted"/>
      <point x="430" y="313" name="fh17"/>
      <point x="453" y="238"/>
      <point x="447" y="196" type="qcurve" name="dh02"/>
      <point x="441" y="154" name="fh18"/>
      <point x="397" y="80" name="fh19"/>
      <point x="365.0" y="52.0" type="qcurve" smooth="yes" name="inserted"/>
      <point x="333" y="24" name="fh20"/>
      <point x="253" y="-8"/>
      <point x="210" y="-8" type="qcurve" name="ab01"/>
      <point x="168" y="-8"/>
      <point x="97" y="24" name="fh21"/>
      <point x="73.0" y="51.0" type="qcurve" smooth="yes" name="inserted"/>
      <point x="49" y="78" name="fh22"/>
      <point x="27" y="152"/>
    </contour>
  </outline>
</glyph>
<glyph name="seven" format="1">
  <advance width="469"/>
  <unicode hex="0037"/>
  <outline>
    <contour>
      <point x="462" y="650" type="line" name="dh02"/>
      <point x="79" y="0" type="line" name="sh01"/>
      <point x="46" y="0" type="line" name="dh01"/>
      <point x="414" y="622" type="line" name="sh02"/>
      <point x="82" y="622" type="line" name="sh05"/>
      <point x="74" y="559" type="line" name="sh04"/>
      <point x="47" y="559" type="line" name="sh03"/>
      <point x="59" y="650" type="line" name="sh06"/>
    </contour>
  </outline>
</glyph>
<glyph name="eight" format="1">
  <advance width="510"/>
  <unicode hex="0038"/>
  <outline>
    <contour>
      <point x="159" y="508" type="qcurve" name="sh02"/>
      <point x="156" y="485"/>
      <point x="169" y="446" name="fh01"/>
      <point x="183.0" y="432.0" type="qcurve" smooth="yes" name="inserted"/>
      <point x="197" y="418" name="fh02"/>
      <point x="239" y="402"/>
      <point x="264" y="402" type="qcurve" name="iv01"/>
      <point x="315" y="402" name="fh03"/>
      <point x="390" y="462" name="fv01"/>
      <point x="397" y="508" type="qcurve" name="sh04"/>
      <point x="400" y="533"/>
      <point x="388" y="577"/>
      <point x="374.5" y="594.0" type="qcurve" smooth="yes" name="inserted"/>
      <point x="361" y="611" name="fh04"/>
      <point x="321" y="631"/>
      <point x="296" y="631" type="qcurve" name="sv01"/>
      <point x="271" y="631"/>
      <point x="224" y="611" name="fv02"/>
      <point x="205.5" y="594.0" type="qcurve" smooth="yes" name="inserted"/>
      <point x="187" y="577" name="fh05"/>
      <point x="162" y="533"/>
    </contour>
    <contour>
      <point x="59" y="198" type="qcurve" name="sh05"/>
      <point x="54" y="162"/>
      <point x="73" y="97" name="fh06"/>
      <point x="93.0" y="72.5" type="qcurve" smooth="yes" name="inserted"/>
      <point x="113" y="48" name="fh07"/>
      <point x="173" y="19"/>
      <point x="210" y="19" type="qcurve" name="sv02"/>
      <point x="247" y="19"/>
      <point x="317" y="48" name="fv03"/>
      <point x="345.0" y="72.5" type="qcurve" smooth="yes" name="inserted"/>
      <point x="373" y="97"/>
      <point x="411" y="162"/>
      <point x="416" y="198" type="qcurve" name="sh06"/>
      <point x="421" y="234"/>
      <point x="402" y="298"/>
      <point x="380.5" y="322.0" type="qcurve" smooth="yes" name="inserted"/>
      <point x="359" y="346" name="fh08"/>
      <point x="297" y="373"/>
      <point x="260" y="373" type="qcurve" name="sv03"/>
      <point x="223" y="373"/>
      <point x="155" y="346"/>
      <point x="128.0" y="322.0" type="qcurve" smooth="yes" name="inserted"/>
      <point x="101" y="298"/>
      <point x="65" y="234"/>
    </contour>
    <contour>
      <point x="31" y="198" type="qcurve" name="dh01"/>
      <point x="36" y="232"/>
      <point x="66" y="293" name="fv04"/>
      <point x="88.0" y="318.0" type="qcurve" smooth="yes" name="inserted"/>
      <point x="110" y="343" name="fh09"/>
      <point x="167" y="380"/>
      <point x="199" y="389" type="qcurve" name="ih01"/>
      <point x="164" y="404" name="fh10"/>
      <point x="125" y="471"/>
      <point x="132" y="514" type="qcurve" name="sh01"/>
      <point x="136" y="544" name="fh11"/>
      <point x="166" y="596" name="fh12"/>
      <point x="188.5" y="615.5" type="qcurve" smooth="yes" name="inserted"/>
      <point x="211" y="635" name="fh13"/>
      <point x="268" y="658"/>
      <point x="298" y="658" type="qcurve" name="at01"/>
      <point x="329" y="658"/>
      <point x="379" y="635" name="fh14"/>
      <point x="396.5" y="615.0" type="qcurve" smooth="yes" name="inserted"/>
      <point x="414" y="595" name="fh15"/>
      <point x="429" y="541"/>
      <point x="425" y="511" type="qcurve" name="sh03"/>
      <point x="419" y="469"/>
      <point x="364" y="405" name="fh16"/>
      <point x="325" y="389" type="qcurve" name="ih02"/>
      <point x="355" y="380"/>
      <point x="404" y="344" name="fh17"/>
      <point x="420.0" y="319.0" type="qcurve" smooth="yes" name="inserted"/>
      <point x="436" y="294" name="fh18"/>
      <point x="449" y="232"/>
      <point x="444" y="198" type="qcurve" name="dh02"/>
      <point x="438" y="155" name="fh19"/>
      <point x="395" y="80" name="fh20"/>
      <point x="362.5" y="52.0" type="qcurve" smooth="yes" name="inserted"/>
      <point x="330" y="24" name="fh21"/>
      <point x="250" y="-8"/>
      <point x="208" y="-8" type="qcurve" name="ab01"/>
      <point x="166" y="-8"/>
      <point x="95" y="24" name="fh22"/>
      <point x="71.0" y="52.0" type="qcurve" smooth="yes" name="inserted"/>
      <point x="47" y="80" name="fh23"/>
      <point x="25" y="155"/>
    </contour>
  </outline>
</glyph>
<glyph name="nine" format="1">
  <advance width="525"/>
  <unicode hex="0039"/>
  <outline>
    <contour>
      <point x="451" y="429" type="qcurve" name="sh01"/>
      <point x="456" y="466"/>
      <point x="438" y="530" name="fh01"/>
      <point x="417.0" y="554.0" type="qcurve" smooth="yes" name="inserted"/>
      <point x="396" y="578" name="fh02"/>
      <point x="335" y="606"/>
      <point x="298" y="606" type="qcurve" name="sv01"/>
      <point x="261" y="606"/>
      <point x="191" y="578" name="fv01"/>
      <point x="163.5" y="554.0" type="qcurve" smooth="yes" name="inserted"/>
      <point x="136" y="530" name="fh03"/>
      <point x="98" y="466"/>
      <point x="93" y="429" type="qcurve" name="sh02"/>
      <point x="88" y="392"/>
      <point x="107" y="328" name="fh04"/>
      <point x="128.0" y="304.0" type="qcurve" smooth="yes" name="inserted"/>
      <point x="149" y="280" name="fh05"/>
      <point x="211" y="252"/>
      <point x="248" y="252" type="qcurve" name="sv02"/>
      <point x="285" y="252"/>
      <point x="354" y="280" name="fh06"/>
      <point x="381.5" y="304.0" type="qcurve" smooth="yes" name="inserted"/>
      <point x="409" y="328" name="fh07"/>
      <point x="446" y="392" name="fh08"/>
    </contour>
    <contour>
      <point x="478" y="429" type="qcurve" name="dh02"/>
      <point x="468" y="357" name="fh09"/>
      <point x="389" y="233" name="fh10"/>
      <point x="333.0" y="179.0" type="qcurve" smooth="yes" name="inserted"/>
      <point x="277" y="125" name="fh11"/>
      <point x="146" y="32" name="fh12"/>
      <point x="85" y="-8" type="qcurve" name="ab01"/>
      <point x="82" y="-3"/>
      <point x="74" y="10"/>
      <point x="70" y="15" type="qcurve" name="sh03"/>
      <point x="202" y="95" name="fh13"/>
      <point x="355" y="239" name="fh14"/>
      <point x="387" y="290" type="qcurve" name="ih01"/>
      <point x="359" y="260"/>
      <point x="285" y="225"/>
      <point x="243" y="225" type="qcurve" name="iv01"/>
      <point x="200" y="225"/>
      <point x="129" y="257" name="fh15"/>
      <point x="105.0" y="285.0" type="qcurve" smooth="yes" name="inserted"/>
      <point x="81" y="313" name="fh16"/>
      <point x="59" y="387"/>
      <point x="65" y="429" type="qcurve" name="dh01"/>
      <point x="71" y="471" name="fh17"/>
      <point x="114" y="546" name="fh18"/>
      <point x="146.0" y="574.0" type="qcurve" smooth="yes" name="inserted"/>
      <point x="178" y="602" name="fh19"/>
      <point x="258" y="634" name="fv02"/>
      <point x="301" y="634" type="qcurve" name="av01"/>
      <point x="344" y="634"/>
      <point x="415" y="602" name="fh20"/>
      <point x="439.0" y="574.0" type="qcurve" smooth="yes" name="inserted"/>
      <point x="463" y="546" name="fh21"/>
      <point x="484" y="471"/>
    </contour>
  </outline>
</glyph>
<glyph name="less" format="1">
  <advance width="680"/>
  <unicode hex="003C"/>
  <outline>
    <contour>
      <point x="522" y="21" type="qcurve" name="sh01"/>
      <point x="517" y="-15" type="line" name="av01"/>
      <point x="416" y="48"/>
      <point x="216" y="175"/>
      <point x="115" y="238" type="qcurve" name="dh01"/>
      <point x="233" y="301"/>
      <point x="469" y="428"/>
      <point x="588" y="491" type="qcurve" name="dh02"/>
      <point x="583" y="455" type="line" name="sv01"/>
      <point x="481" y="401"/>
      <point x="278" y="292"/>
      <point x="175" y="238" type="qcurve" name="sh02"/>
      <point x="262" y="184"/>
      <point x="434" y="75" name="fv01"/>
    </contour>
  </outline>
</glyph>
<glyph name="equal" format="1">
  <advance width="708"/>
  <unicode hex="003D"/>
  <outline>
    <contour>
      <point x="594" y="170" type="line" name="dh02"/>
      <point x="590" y="142" type="line"/>
      <point x="84" y="142" type="line" name="dh01"/>
      <point x="88" y="170" type="line" name="sv01"/>
    </contour>
    <contour>
      <point x="621" y="364" type="line" name="sh02"/>
      <point x="617" y="336" type="line"/>
      <point x="111" y="336" type="line" name="sh01"/>
      <point x="115" y="364" type="line" name="sv02"/>
    </contour>
  </outline>
</glyph>
<glyph name="question" format="1">
  <advance width="452"/>
  <unicode hex="003F"/>
  <outline>
    <contour>
      <point x="87" y="587" type="qcurve" name="sh01"/>
      <point x="81" y="589"/>
      <point x="69" y="593"/>
      <point x="63" y="595" type="qcurve" name="dh01"/>
      <point x="76" y="622"/>
      <point x="117" y="672"/>
      <point x="143.5" y="691.0" type="qcurve" smooth="yes" name="inserted"/>
      <point x="170" y="710"/>
      <point x="234" y="732"/>
      <point x="270" y="732" type="qcurve" name="av02"/>
      <point x="311" y="732"/>
      <point x="379" y="701" name="fh01"/>
      <point x="401.5" y="674.5" type="qcurve" smooth="yes" name="inserted"/>
      <point x="424" y="648" name="fh02"/>
      <point x="445" y="577"/>
      <point x="439" y="537" type="qcurve" name="dh02"/>
      <point x="431" y="483"/>
      <point x="367" y="401"/>
      <point x="317" y="369" type="qcurve"/>
      <point x="297" y="355"/>
      <point x="261" y="336" name="fh03"/>
      <point x="246.5" y="323.5" type="qcurve" smooth="yes" name="inserted"/>
      <point x="232" y="311"/>
      <point x="212" y="274"/>
      <point x="207" y="242" type="qcurve" name="sh03"/>
      <point x="196" y="164" type="line" name="sh02"/>
      <point x="168" y="164" type="line" name="ih01"/>
      <point x="182" y="261" type="line" name="sh04"/>
      <point x="186" y="292"/>
      <point x="214" y="330" name="fh04"/>
      <point x="234.5" y="345.0" type="qcurve" smooth="yes" name="inserted"/>
      <point x="255" y="360"/>
      <point x="305" y="387"/>
      <point x="332" y="408" type="qcurve"/>
      <point x="367" y="435"/>
      <point x="406" y="500"/>
      <point x="411" y="537" type="qcurve" name="sh05"/>
      <point x="416" y="573"/>
      <point x="399" y="634" name="fh05"/>
      <point x="379.5" y="656.5" type="qcurve" smooth="yes" name="inserted"/>
      <point x="360" y="679" name="fh06"/>
      <point x="302" y="705"/>
      <point x="267" y="705" type="qcurve" name="sv01"/>
      <point x="208" y="705"/>
      <point x="111" y="641"/>
    </contour>
    <contour>
      <point x="162" y="20" type="qcurve" name="av01"/>
      <point x="153" y="20"/>
      <point x="139" y="35"/>
      <point x="141" y="46" type="qcurve" name="sh06"/>
      <point x="142" y="58"/>
      <point x="160" y="73"/>
      <point x="169" y="73" type="qcurve" name="sv02"/>
      <point x="179" y="73"/>
      <point x="194" y="58"/>
      <point x="192" y="46" type="qcurve" name="sh07"/>
      <point x="190" y="35"/>
      <point x="172" y="20"/>
    </contour>
  </outline>
</glyph>
<glyph name="at" format="1">
  <advance width="990"/>
  <unicode hex="0040"/>
  <outline>
    <contour>
      <point x="321" y="188" type="qcurve" name="sh02"/>
      <point x="316" y="153"/>
      <point x="333" y="92"/>
      <point x="352.5" y="69.5" type="qcurve" smooth="yes" name="inserted"/>
      <point x="372" y="47" name="fh01"/>
      <point x="430" y="21"/>
      <point x="465" y="21" type="qcurve" name="sv01"/>
      <point x="500" y="21"/>
      <point x="565" y="47"/>
      <point x="591.0" y="69.5" type="qcurve" smooth="yes" name="inserted"/>
      <point x="617" y="92"/>
      <point x="651" y="153"/>
      <point x="656" y="188" type="qcurve" name="ih01"/>
      <point x="661" y="223"/>
      <point x="644" y="284"/>
      <point x="624.5" y="307.0" type="qcurve" smooth="yes" name="inserted"/>
      <point x="605" y="330" name="fh02"/>
      <point x="547" y="356"/>
      <point x="512" y="356" type="qcurve" name="sv02"/>
      <point x="477" y="356"/>
      <point x="412" y="330"/>
      <point x="386.0" y="307.0" type="qcurve" smooth="yes" name="inserted"/>
      <point x="360" y="284"/>
      <point x="326" y="223"/>
    </contour>
    <contour>
      <point x="889" y="188" type="qcurve" name="dh02"/>
      <point x="878" y="130" name="fh03"/>
      <point x="841" y="57" name="fh04"/>
      <point x="817.5" y="36.0" type="qcurve" smooth="yes" name="inserted"/>
      <point x="794" y="15" name="fh05"/>
      <point x="741" y="0"/>
      <point x="716" y="0" type="qcurve"/>
      <point x="632" y="0" type="line" name="sh05"/>
      <point x="639" y="47" type="line"/>
      <point x="641" y="61"/>
      <point x="645" y="88"/>
      <point x="647" y="102" type="qcurve" name="ih02"/>
      <point x="635" y="79"/>
      <point x="597" y="40" name="fh06"/>
      <point x="573.0" y="25.5" type="qcurve" smooth="yes" name="inserted"/>
      <point x="549" y="11"/>
      <point x="492" y="-7"/>
      <point x="461" y="-7" type="qcurve" name="ab01"/>
      <point x="420" y="-7"/>
      <point x="353" y="24" name="fh07"/>
      <point x="330.5" y="50.0" type="qcurve" smooth="yes" name="inserted"/>
      <point x="308" y="76"/>
      <point x="287" y="147"/>
      <point x="293" y="188" type="qcurve" name="sh01"/>
      <point x="299" y="228" name="fh08"/>
      <point x="339" y="299" name="fh09"/>
      <point x="369.0" y="325.5" type="qcurve" smooth="yes" name="inserted"/>
      <point x="399" y="352" name="fh10"/>
      <point x="475" y="383"/>
      <point x="516" y="383" type="qcurve" name="at01"/>
      <point x="546" y="383"/>
      <point x="597" y="366" name="fh11"/>
      <point x="617.0" y="351.0" type="qcurve" smooth="yes" name="inserted"/>
      <point x="637" y="336" name="fh12"/>
      <point x="664" y="296"/>
      <point x="670" y="274" type="qcurve" name="ih03"/>
      <point x="674" y="299"/>
      <point x="684" y="349"/>
      <point x="689" y="375" type="qcurve" name="sh04"/>
      <point x="711" y="375" type="line" name="sh03"/>
      <point x="662" y="27" type="line" name="sh06"/>
      <point x="725" y="27" type="line"/>
      <point x="776" y="27"/>
      <point x="847" y="103"/>
      <point x="861" y="188" type="qcurve" name="sh07"/>
      <point x="872" y="266"/>
      <point x="833" y="402" name="fh13"/>
      <point x="789.5" y="453.0" type="qcurve" smooth="yes" name="inserted"/>
      <point x="746" y="504" name="fh14"/>
      <point x="618" y="563"/>
      <point x="541" y="563" type="qcurve" name="sv03"/>
      <point x="463" y="563"/>
      <point x="319" y="504"/>
      <point x="261.5" y="453.0" type="qcurve" smooth="yes" name="inserted"/>
      <point x="204" y="402" name="fh15"/>
      <point x="126" y="266"/>
      <point x="115" y="188" type="qcurve" name="sh08"/>
      <point x="104" y="111"/>
      <point x="144" y="-25" name="fh16"/>
      <point x="187.5" y="-75.5" type="qcurve" smooth="yes" name="inserted"/>
      <point x="231" y="-126" name="fh17"/>
      <point x="359" y="-185" name="fh18"/>
      <point x="436" y="-185" type="qcurve" name="sv04"/>
      <point x="497" y="-185"/>
      <point x="612" y="-147"/>
      <point x="663" y="-115" type="qcurve" name="sv05"/>
      <point x="666" y="-121"/>
      <point x="674" y="-131"/>
      <point x="677" y="-136" type="qcurve" name="ih04"/>
      <point x="623" y="-172"/>
      <point x="498" y="-212"/>
      <point x="432" y="-212" type="qcurve" name="av02"/>
      <point x="349" y="-212" name="fh19"/>
      <point x="212" y="-149" name="fh20"/>
      <point x="165.5" y="-94.5" type="qcurve" smooth="yes" name="inserted"/>
      <point x="119" y="-40" name="fh21"/>
      <point x="76" y="106" name="fh22"/>
      <point x="88" y="189" type="qcurve" name="dh01"/>
      <point x="100" y="272" name="fh23"/>
      <point x="183" y="418" name="fh24"/>
      <point x="245.0" y="472.5" type="qcurve" smooth="yes" name="inserted"/>
      <point x="307" y="527" name="fh25"/>
      <point x="462" y="590"/>
      <point x="545" y="590" type="qcurve" name="av01"/>
      <point x="628" y="590"/>
      <point x="765" y="527" name="fh26"/>
      <point x="811.5" y="472.5" type="qcurve" smooth="yes" name="inserted"/>
      <point x="858" y="418" name="fh27"/>
      <point x="901" y="272"/>
    </contour>
  </outline>
</glyph>
<glyph name="C" format="1">
  <advance width="610"/>
  <unicode hex="0043"/>
  <outline>
    <contour>
      <point x="625" y="546" type="line" name="sh02"/>
      <point x="639" y="641" type="line" name="sh03"/>
      <point x="606.0" y="661.0" name="inserted"/>
      <point x="530.5" y="681.0"/>
      <point x="488" y="681" type="qcurve" name="sv01"/>
      <point x="420" y="681"/>
      <point x="293" y="628"/>
      <point x="242.0" y="583.0" type="qcurve" smooth="yes" name="inserted"/>
      <point x="191" y="538" name="fh01"/>
      <point x="122" y="417"/>
      <point x="113" y="348" type="qcurve" name="sh04"/>
      <point x="103" y="280"/>
      <point x="138" y="160" name="fh02"/>
      <point x="176.0" y="115.5" type="qcurve" smooth="yes" name="inserted"/>
      <point x="214" y="71" name="fh03"/>
      <point x="325" y="19"/>
      <point x="393" y="19" type="qcurve" name="sv02"/>
      <point x="439" y="19"/>
      <point x="527" y="43"/>
      <point x="567" y="65" type="qcurve" name="sv03"/>
      <point x="581" y="42" type="line" name="ih01"/>
      <point x="537" y="19"/>
      <point x="443" y="-8"/>
      <point x="392" y="-8" type="qcurve" name="ab01"/>
      <point x="318" y="-8"/>
      <point x="196" y="48" name="fh04"/>
      <point x="154.0" y="96.5" type="qcurve" smooth="yes" name="inserted"/>
      <point x="112" y="145" name="fh05"/>
      <point x="74" y="275"/>
      <point x="85" y="349" type="qcurve" name="dh01"/>
      <point x="95" y="423"/>
      <point x="170" y="554" name="fh06"/>
      <point x="225.0" y="602.5" type="qcurve" smooth="yes" name="inserted"/>
      <point x="280" y="651" name="fh07"/>
      <point x="418" y="708"/>
      <point x="492" y="708" type="qcurve" name="at01"/>
      <point x="543" y="708"/>
      <point x="631" y="682" name="fh08"/>
      <point x="668" y="658" type="qcurve" name="dh02"/>
      <point x="652" y="546" type="line" name="sh01"/>
    </contour>
  </outline>
</glyph>
<glyph name="E" format="1">
  <advance width="571"/>
  <unicode hex="0045"/>
  <outline>
    <contour>
      <point x="38" y="27" type="line" name="sv01"/>
      <point x="115" y="27" type="line" name="dh01"/>
      <point x="206" y="673" type="line" name="sh01"/>
      <point x="129" y="673" type="line" name="sh02"/>
      <point x="133" y="700" type="line" name="at01"/>
      <point x="620" y="700" type="line" name="dh02"/>
      <point x="598" y="546" type="line" name="sh03"/>
      <point x="571" y="546" type="line" name="sh04"/>
      <point x="589" y="673" type="line" name="sh05"/>
      <point x="234" y="673" type="line" name="sh07"/>
      <point x="191" y="366" type="line" name="ih01"/>
      <point x="534" y="366" type="line" name="ih02"/>
      <point x="530" y="339" type="line"/>
      <point x="187" y="339" type="line" name="ih03"/>
      <point x="143" y="27" type="line" name="sh06"/>
      <point x="512" y="27" type="line" name="sh10"/>
      <point x="530" y="154" type="line" name="sh09"/>
      <point x="557" y="154" type="line" name="sh08"/>
      <point x="536" y="0" type="line" name="sh11"/>
      <point x="35" y="0" type="line" name="sh12"/>
    </contour>
  </outline>
</glyph>
<glyph name="G" format="1">
  <advance width="609"/>
  <unicode hex="0047"/>
  <outline>
    <contour>
      <point x="565" y="298" type="line" name="sh01"/>
      <point x="529" y="40" type="line" name="sh02"/>
      <point x="486" y="17"/>
      <point x="392" y="-10"/>
      <point x="341" y="-10" type="qcurve" name="ab01"/>
      <point x="267" y="-10"/>
      <point x="145" y="46" name="fh01"/>
      <point x="103.0" y="94.5" type="qcurve" smooth="yes" name="inserted"/>
      <point x="61" y="143"/>
      <point x="23" y="273"/>
      <point x="33" y="347" type="qcurve" name="dh01"/>
      <point x="43" y="421"/>
      <point x="118" y="552"/>
      <point x="173.5" y="600.5" type="qcurve" smooth="yes" name="inserted"/>
      <point x="229" y="649" name="fh02"/>
      <point x="367" y="706"/>
      <point x="441" y="706" type="qcurve" name="at01"/>
      <point x="492" y="706"/>
      <point x="579" y="680"/>
      <point x="617" y="656" type="qcurve" name="dh02"/>
      <point x="598" y="633" type="line" name="sv01"/>
      <point x="563.5" y="656.0" name="inserted"/>
      <point x="483.0" y="679.0"/>
      <point x="437" y="679" type="qcurve" name="sv02"/>
      <point x="369" y="679"/>
      <point x="242" y="626" name="fh03"/>
      <point x="191.0" y="581.0" type="qcurve" smooth="yes" name="inserted"/>
      <point x="140" y="536" name="fh04"/>
      <point x="71" y="415" name="fh05"/>
      <point x="61" y="346" type="qcurve" name="sh03"/>
      <point x="52" y="278"/>
      <point x="86" y="158" name="fh06"/>
      <point x="124.5" y="113.5" type="qcurve" smooth="yes" name="inserted"/>
      <point x="163" y="69" name="fh07"/>
      <point x="274" y="17" name="fh08"/>
      <point x="341" y="17" type="qcurve" name="sv03"/>
      <point x="383.5" y="17.0" name="inserted"/>
      <point x="464.5" y="37.0"/>
      <point x="503" y="57" type="qcurve" name="sh05"/>
      <point x="534" y="271" type="line" name="sh04"/>
      <point x="376" y="271" type="line" name="sh06"/>
      <point x="379" y="298" type="line" name="iv01"/>
    </contour>
  </outline>
</glyph>
<glyph name="I" format="1">
  <advance width="258"/>
  <unicode hex="0049"/>
  <outline>
    <contour>
      <point x="38" y="27" type="line" name="sv01"/>
      <point x="115" y="27" type="line" name="dh01"/>
      <point x="207" y="673" type="line" name="sh01"/>
      <point x="129" y="673" type="line" name="sh02"/>
      <point x="133" y="700" type="line" name="at01"/>
      <point x="321" y="700" type="line" name="sh04"/>
      <point x="317" y="673" type="line"/>
      <point x="234" y="673" type="line" name="sh03"/>
      <point x="143" y="27" type="line" name="dh02"/>
      <point x="226" y="27" type="line" name="sh05"/>
      <point x="223" y="0" type="line"/>
      <point x="35" y="0" type="line" name="sh06"/>
    </contour>
  </outline>
</glyph>
<glyph name="J" format="1">
  <advance width="266"/>
  <unicode hex="004A"/>
  <outline>
    <contour>
      <point x="93" y="700" type="line" name="at01"/>
      <point x="289" y="700" type="line" name="sh01"/>
      <point x="203" y="90" type="line" name="dh02"/>
      <point x="195" y="34" name="fh01"/>
      <point x="152" y="-51" name="fh02"/>
      <point x="121.5" y="-80.0" type="qcurve" smooth="yes" name="inserted"/>
      <point x="91" y="-109" name="fh03"/>
      <point x="16" y="-141"/>
      <point x="-24" y="-142" type="qcurve" name="sh02"/>
      <point x="-21" y="-115" type="line" name="sv01"/>
      <point x="15" y="-113"/>
      <point x="81" y="-84" name="fh04"/>
      <point x="107.0" y="-57.5" type="qcurve" smooth="yes" name="inserted"/>
      <point x="133" y="-31" name="fh05"/>
      <point x="169" y="45"/>
      <point x="175" y="93" type="qcurve" name="dh01"/>
      <point x="258" y="673" type="line" name="sh03"/>
      <point x="89" y="673" type="line" name="sh04"/>
    </contour>
  </outline>
</glyph>
<glyph name="K" format="1">
  <advance width="686"/>
  <unicode hex="004B"/>
  <outline>
    <contour>
      <point x="470" y="27" type="line" name="sv02"/>
      <point x="534" y="27" type="line" name="sh02"/>
      <point x="473" y="121"/>
      <point x="352" y="309"/>
      <point x="291" y="404" type="qcurve" name="sh03"/>
      <point x="183" y="314" type="line" name="ih02"/>
      <point x="172" y="242"/>
      <point x="154" y="99"/>
      <point x="143" y="27" type="qcurve" name="sh04"/>
      <point x="226" y="27" type="line"/>
      <point x="223" y="0" type="line"/>
      <point x="35" y="0" type="line" name="ab01"/>
      <point x="38" y="27" type="line" name="sv01"/>
      <point x="115" y="27" type="line" name="dh01"/>
      <point x="206" y="673" type="line" name="sh06"/>
      <point x="129" y="673" type="line" name="sv03"/>
      <point x="133" y="700" type="line" name="at01"/>
      <point x="317" y="700" type="line"/>
      <point x="313" y="673" type="line"/>
      <point x="234" y="673" type="line" name="sh05"/>
      <point x="192" y="373" type="line" name="fh01"/>
      <point x="190" y="365"/>
      <point x="187" y="352"/>
      <point x="186" y="344" type="qcurve" name="ih03"/>
      <point x="207" y="364" type="line"/>
      <point x="574" y="673" type="line" name="sh07"/>
      <point x="515" y="673" type="line" name="sv04"/>
      <point x="519" y="700" type="line" name="sv05"/>
      <point x="702" y="700" type="line"/>
      <point x="699" y="673" type="line"/>
      <point x="612" y="673" type="line" name="dh02"/>
      <point x="313" y="422" type="line" name="ih01"/>
      <point x="378" y="322"/>
      <point x="505" y="126"/>
      <point x="569" y="27" type="qcurve" name="sh01"/>
      <point x="654" y="27" type="line"/>
      <point x="651" y="0" type="line"/>
      <point x="467" y="0" type="line" name="sv06"/>
    </contour>
  </outline>
</glyph>
<glyph name="L" format="1">
  <advance width="567"/>
  <unicode hex="004C"/>
  <outline>
    <contour>
      <point x="38" y="27" type="line" name="sv01"/>
      <point x="111" y="27" type="line" name="dh01"/>
      <point x="202" y="673" type="line" name="sh01"/>
      <point x="129" y="673" type="line" name="sh02"/>
      <point x="133" y="700" type="line" name="at01"/>
      <point x="317" y="700" type="line" name="sh05"/>
      <point x="313" y="673" type="line"/>
      <point x="230" y="673" type="line" name="sh04"/>
      <point x="139" y="27" type="line" name="sh03"/>
      <point x="508" y="27" type="line" name="sh07"/>
      <point x="526" y="154" type="line" name="sh06"/>
      <point x="553" y="154" type="line" name="dh02"/>
      <point x="532" y="0" type="line" name="sh08"/>
      <point x="35" y="0" type="line" name="sh09"/>
    </contour>
  </outline>
</glyph>
<glyph name="M" format="1">
  <advance width="964"/>
  <unicode hex="004D"/>
  <outline>
    <contour>
      <point x="921" y="700" type="qcurve" name="sh03"/>
      <point x="1023" y="700" type="line" name="sh05"/>
      <point x="1019" y="673" type="line"/>
      <point x="940" y="673" type="line" name="sh04"/>
      <point x="849" y="27" type="line" name="dh02"/>
      <point x="932" y="27" type="line" name="sh06"/>
      <point x="929" y="0" type="line"/>
      <point x="741" y="0" type="line" name="sh07"/>
      <point x="744" y="27" type="line"/>
      <point x="821" y="27" type="line" name="sh01"/>
      <point x="903" y="610" type="line" name="sh02"/>
      <point x="903" y="611"/>
      <point x="906" y="623"/>
      <point x="907.0" y="630.5" type="qcurve" smooth="yes" name="inserted"/>
      <point x="908" y="638"/>
      <point x="910" y="651" name="sv03"/>
      <point x="910" y="652" type="qcurve"/>
      <point x="908.5" y="649.5" name="inserted"/>
      <point x="901.0" y="640.5"/>
      <point x="895" y="634" type="qcurve"/>
      <point x="879" y="616"/>
      <point x="826" y="558"/>
      <point x="793.0" y="521.5" type="qcurve" smooth="yes" name="inserted"/>
      <point x="760" y="485"/>
      <point x="685" y="402"/>
      <point x="647.5" y="360.5" type="qcurve" smooth="yes" name="inserted"/>
      <point x="610" y="319"/>
      <point x="538" y="240"/>
      <point x="509" y="207" type="qcurve" name="sh11"/>
      <point x="462" y="283"/>
      <point x="386" y="404"/>
      <point x="354.0" y="455.0" type="qcurve" smooth="yes" name="inserted"/>
      <point x="322" y="506"/>
      <point x="267" y="594"/>
      <point x="240" y="637" type="qcurve"/>
      <point x="231" y="652" type="line" name="sv02"/>
      <point x="230" y="641"/>
      <point x="229" y="621"/>
      <point x="227" y="610" type="qcurve" name="sh09"/>
      <point x="145" y="27" type="line" name="sh08"/>
      <point x="226" y="27" type="line" name="sh12"/>
      <point x="223" y="0" type="line"/>
      <point x="35" y="0" type="line" name="sh13"/>
      <point x="38" y="27" type="line" name="sv01"/>
      <point x="117" y="27" type="line" name="dh01"/>
      <point x="208" y="673" type="line" name="sh14"/>
      <point x="129" y="673" type="line" name="sh15"/>
      <point x="133" y="700" type="line" name="at01"/>
      <point x="235" y="700" type="line" name="sh10"/>
      <point x="240" y="693"/>
      <point x="272" y="641"/>
      <point x="295.5" y="604.0" type="qcurve" smooth="yes" name="inserted"/>
      <point x="319" y="567"/>
      <point x="376" y="476" name="fh01"/>
      <point x="405.5" y="428.5" type="qcurve" smooth="yes" name="inserted"/>
      <point x="435" y="381" name="fh02"/>
      <point x="492" y="291"/>
      <point x="515" y="254" type="qcurve" name="ih01"/>
      <point x="617" y="365"/>
      <point x="819" y="589"/>
    </contour>
  </outline>
</glyph>
<glyph name="N" format="1">
  <advance width="843"/>
  <unicode hex="004E"/>
  <outline>
    <contour>
      <point x="43" y="27" type="line" name="sv01"/>
      <point x="122" y="27" type="line" name="dh01"/>
      <point x="212" y="673" type="line" name="sh01"/>
      <point x="133" y="673" type="line" name="sh02"/>
      <point x="137" y="700" type="line" name="at01"/>
      <point x="243" y="700" type="line" name="sh05"/>
      <point x="693" y="58" type="line" name="fv01"/>
      <point x="708" y="32" type="line" name="sv02"/>
      <point x="710" y="64" type="line" name="sh07"/>
      <point x="795" y="673" type="line" name="sh06"/>
      <point x="719" y="673" type="line" name="sh08"/>
      <point x="722" y="700" type="line" name="sv03"/>
      <point x="910" y="700" type="line" name="sh09"/>
      <point x="906" y="673" type="line"/>
      <point x="823" y="673" type="line" name="dh02"/>
      <point x="725" y="-32" type="line" name="sh10"/>
      <point x="251" y="638" type="line" name="fv02"/>
      <point x="236" y="660" type="line" name="sv04"/>
      <point x="234" y="632" type="line" name="sh04"/>
      <point x="150" y="27" type="line" name="sh03"/>
      <point x="230" y="27" type="line" name="sh11"/>
      <point x="227" y="0" type="line"/>
      <point x="39" y="0" type="line" name="sh12"/>
    </contour>
  </outline>
</glyph>
<glyph name="O" format="1">
  <advance width="786"/>
  <unicode hex="004F"/>
  <outline>
    <contour>
      <point x="85" y="349" type="qcurve" name="dh01"/>
      <point x="95" y="423" name="fh01"/>
      <point x="170" y="554" name="fh02"/>
      <point x="225.0" y="602.5" type="qcurve" smooth="yes" name="inserted"/>
      <point x="280" y="651" name="fh03"/>
      <point x="418" y="708"/>
      <point x="492" y="708" type="qcurve" name="at01"/>
      <point x="566" y="708"/>
      <point x="689" y="651" name="fh04"/>
      <point x="731.0" y="602.5" type="qcurve" smooth="yes" name="inserted"/>
      <point x="773" y="554" name="fh05"/>
      <point x="811" y="423"/>
      <point x="801" y="349" type="qcurve" name="dh02"/>
      <point x="790" y="275" name="fh06"/>
      <point x="716" y="145" name="fh07"/>
      <point x="660.5" y="96.5" type="qcurve" smooth="yes" name="inserted"/>
      <point x="605" y="48" name="fh08"/>
      <point x="466" y="-8"/>
      <point x="392" y="-8" type="qcurve" name="ab01"/>
      <point x="318" y="-8" name="fv01"/>
      <point x="196" y="48" name="fh09"/>
      <point x="154.0" y="96.5" type="qcurve" smooth="yes" name="inserted"/>
      <point x="112" y="145" name="fh10"/>
      <point x="74" y="275"/>
    </contour>
    <contour>
      <point x="113" y="348" type="qcurve" name="sh01"/>
      <point x="103" y="280"/>
      <point x="138" y="160" name="fh11"/>
      <point x="176.0" y="115.5" type="qcurve" smooth="yes" name="inserted"/>
      <point x="214" y="71" name="fh12"/>
      <point x="325" y="19" name="fh13"/>
      <point x="393" y="19" type="qcurve" name="sv01"/>
      <point x="461" y="19"/>
      <point x="590" y="71" name="fh14"/>
      <point x="641.5" y="116.0" type="qcurve" smooth="yes" name="inserted"/>
      <point x="693" y="161" name="fh15"/>
      <point x="763" y="281"/>
      <point x="773" y="349" type="qcurve" name="sh02"/>
      <point x="782" y="417"/>
      <point x="747" y="538" name="fh16"/>
      <point x="708.0" y="583.0" type="qcurve" smooth="yes" name="inserted"/>
      <point x="669" y="628" name="fh17"/>
      <point x="556" y="681" name="fh18"/>
      <point x="488" y="681" type="qcurve" name="sv02"/>
      <point x="420" y="681"/>
      <point x="293" y="628" name="fh19"/>
      <point x="242.0" y="583.0" type="qcurve" smooth="yes" name="inserted"/>
      <point x="191" y="538" name="fh20"/>
      <point x="122" y="417"/>
    </contour>
  </outline>
</glyph>
<glyph name="P" format="1">
  <advance width="488"/>
  <unicode hex="0050"/>
  <outline>
    <contour>
      <point x="38" y="27" type="line" name="sv01"/>
      <point x="104" y="27" type="line" name="dh01"/>
      <point x="195" y="673" type="line" name="sh01"/>
      <point x="129" y="673" type="line" name="sh02"/>
      <point x="133" y="700" type="line" name="at01"/>
      <point x="344" y="700" type="line"/>
      <point x="374" y="700"/>
      <point x="443" y="680" name="fh01"/>
      <point x="471.5" y="658.5" type="qcurve" smooth="yes" name="inserted"/>
      <point x="500" y="637" name="fh02"/>
      <point x="533" y="568" name="fh03"/>
      <point x="526" y="520" type="qcurve" name="dh02"/>
      <point x="514" y="435" name="fh04"/>
      <point x="389" y="335" name="fh05"/>
      <point x="286" y="335" type="qcurve"/>
      <point x="175" y="335" type="line" name="ih01"/>
      <point x="132" y="27" type="line" name="sh03"/>
      <point x="226" y="27" type="line" name="sh05"/>
      <point x="223" y="0" type="line"/>
      <point x="35" y="0" type="line" name="sh06"/>
    </contour>
    <contour>
      <point x="179" y="362" type="line" name="ih02"/>
      <point x="288" y="362" type="line"/>
      <point x="343" y="362"/>
      <point x="420" y="392" name="fh06"/>
      <point x="445.0" y="415.5" type="qcurve" smooth="yes" name="inserted"/>
      <point x="470" y="439"/>
      <point x="495" y="494"/>
      <point x="498" y="520" type="qcurve" name="sh07"/>
      <point x="502" y="550"/>
      <point x="481" y="606" name="fh07"/>
      <point x="459.0" y="627.0" type="qcurve" smooth="yes" name="inserted"/>
      <point x="437" y="648" name="fh08"/>
      <point x="373" y="673"/>
      <point x="333" y="673" type="qcurve"/>
      <point x="223" y="673" type="line" name="sh04"/>
    </contour>
  </outline>
</glyph>
<glyph name="R" format="1">
  <advance width="570"/>
  <unicode hex="0052"/>
  <outline>
    <contour>
      <point x="38" y="27" type="line" name="sv01"/>
      <point x="104" y="27" type="line" name="dh01"/>
      <point x="195" y="673" type="line" name="sh01"/>
      <point x="129" y="673" type="line" name="sh02"/>
      <point x="133" y="700" type="line" name="at01"/>
      <point x="344" y="700" type="line"/>
      <point x="374" y="700"/>
      <point x="443" y="680" name="fh01"/>
      <point x="471.5" y="658.5" type="qcurve" smooth="yes" name="inserted"/>
      <point x="500" y="637" name="fh02"/>
      <point x="533" y="568" name="fh03"/>
      <point x="526" y="520" type="qcurve" name="dh02"/>
      <point x="516" y="449" name="fh04"/>
      <point x="425" y="355" name="fh05"/>
      <point x="349" y="340" type="qcurve" name="ih02"/>
      <point x="452" y="27" type="line" name="sh05"/>
      <point x="538" y="27" type="line" name="sh06"/>
      <point x="535" y="0" type="line"/>
      <point x="433" y="0" type="line" name="sh08"/>
      <point x="320" y="338" type="line" name="sh07"/>
      <point x="308.5" y="336.5" name="inserted"/>
      <point x="285.0" y="335.0"/>
      <point x="273" y="335" type="qcurve"/>
      <point x="175" y="335" type="line" name="ih01"/>
      <point x="132" y="27" type="line" name="sh03"/>
      <point x="226" y="27" type="line" name="sh09"/>
      <point x="223" y="0" type="line"/>
      <point x="35" y="0" type="line" name="sh10"/>
    </contour>
    <contour>
      <point x="179" y="362" type="line" name="ih03"/>
      <point x="288" y="362" type="line"/>
      <point x="343" y="362"/>
      <point x="420" y="392" name="fh06"/>
      <point x="445.0" y="415.5" type="qcurve" smooth="yes" name="inserted"/>
      <point x="470" y="439" name="fh07"/>
      <point x="495" y="494"/>
      <point x="498" y="520" type="qcurve" name="sh11"/>
      <point x="502" y="550"/>
      <point x="481" y="606" name="fh08"/>
      <point x="459.0" y="627.0" type="qcurve" smooth="yes" name="inserted"/>
      <point x="437" y="648" name="fh09"/>
      <point x="373" y="673"/>
      <point x="333" y="673" type="qcurve"/>
      <point x="223" y="673" type="line" name="sh04"/>
    </contour>
  </outline>
</glyph>
<glyph name="S" format="1">
  <advance width="478"/>
  <unicode hex="0053"/>
  <outline>
    <contour>
      <point x="52" y="70" type="qcurve" name="sh01"/>
      <point x="66" y="173" type="line" name="sh02"/>
      <point x="93" y="173" type="line" name="sh03"/>
      <point x="80" y="83" type="line" name="sh04"/>
      <point x="105" y="56" name="fh01"/>
      <point x="182" y="19"/>
      <point x="240" y="19" type="qcurve" name="sv01"/>
      <point x="276" y="19"/>
      <point x="347" y="42" name="fh02"/>
      <point x="376.0" y="63.0" type="qcurve" smooth="yes" name="inserted"/>
      <point x="405" y="84" name="fv01"/>
      <point x="445" y="145"/>
      <point x="450" y="183" type="qcurve" name="sh05"/>
      <point x="456" y="228"/>
      <point x="435" y="287"/>
      <point x="412.5" y="305.5" type="qcurve" smooth="yes" name="inserted"/>
      <point x="390" y="324"/>
      <point x="330" y="347"/>
      <point x="298.0" y="356.5" type="qcurve" smooth="yes" name="inserted"/>
      <point x="266" y="366" name="sv02"/>
      <point x="205" y="387"/>
      <point x="181.5" y="404.0" type="qcurve" smooth="yes" name="inserted"/>
      <point x="158" y="421" name="fh03"/>
      <point x="132" y="475"/>
      <point x="136" y="517" type="qcurve" name="dh01"/>
      <point x="139" y="550"/>
      <point x="167" y="617" name="fh04"/>
      <point x="192.5" y="644.0" type="qcurve" smooth="yes" name="inserted"/>
      <point x="218" y="671" name="fh05"/>
      <point x="291" y="704"/>
      <point x="339" y="704" type="qcurve" name="at01"/>
      <point x="373" y="704"/>
      <point x="455" y="686" name="fv02"/>
      <point x="486" y="657" type="qcurve" name="sh06"/>
      <point x="471" y="546" type="line" name="sh07"/>
      <point x="444" y="546" type="line" name="sh08"/>
      <point x="457" y="643" type="line" name="sh09"/>
      <point x="440" y="657"/>
      <point x="379" y="677"/>
      <point x="334" y="677" type="qcurve" name="sv03"/>
      <point x="297" y="677"/>
      <point x="238" y="652" name="fh06"/>
      <point x="216.5" y="631.0" type="qcurve" smooth="yes" name="inserted"/>
      <point x="195" y="610" name="fh07"/>
      <point x="169" y="556"/>
      <point x="165" y="527" type="qcurve" name="sh10"/>
      <point x="160" y="489"/>
      <point x="184" y="440"/>
      <point x="207.0" y="424.5" type="qcurve" smooth="yes" name="inserted"/>
      <point x="230" y="409"/>
      <point x="291" y="389" name="iv01"/>
      <point x="323.5" y="379.0" type="qcurve" smooth="yes" name="inserted"/>
      <point x="356" y="369"/>
      <point x="417" y="343" name="fh08"/>
      <point x="439.5" y="322.0" type="qcurve" smooth="yes" name="inserted"/>
      <point x="462" y="301" name="fh09"/>
      <point x="485" y="235"/>
      <point x="479" y="186" type="qcurve" name="dh02"/>
      <point x="473" y="142" name="fh10"/>
      <point x="430" y="70" name="fh11"/>
      <point x="398.0" y="44.5" type="qcurve" smooth="yes" name="inserted"/>
      <point x="366" y="19" name="fh12"/>
      <point x="284" y="-8" name="fv03"/>
      <point x="241" y="-8" type="qcurve" name="ab01"/>
      <point x="201" y="-8"/>
      <point x="138" y="8" name="fv04"/>
      <point x="115.0" y="20.0" type="qcurve" smooth="yes" name="inserted"/>
      <point x="92" y="32"/>
      <point x="60" y="59"/>
    </contour>
  </outline>
</glyph>
<glyph name="U" format="1">
  <advance width="685"/>
  <unicode hex="0055"/>
  <outline>
    <contour>
      <point x="134" y="700" type="line" name="at01"/>
      <point x="322" y="700" type="line" name="sh02"/>
      <point x="318" y="673" type="line"/>
      <point x="235" y="673" type="line" name="sh01"/>
      <point x="173" y="229" type="line" name="sh03"/>
      <point x="159" y="127" name="fh01"/>
      <point x="256" y="19" name="fh02"/>
      <point x="345" y="19" type="qcurve" name="sv01"/>
      <point x="389" y="19"/>
      <point x="467" y="47" name="fh03"/>
      <point x="498.0" y="73.5" type="qcurve" smooth="yes" name="inserted"/>
      <point x="529" y="100" name="fh04"/>
      <point x="571" y="178"/>
      <point x="578" y="229" type="qcurve" name="sh05"/>
      <point x="640" y="673" type="line" name="sh04"/>
      <point x="558" y="673" type="line" name="sh06"/>
      <point x="561" y="700" type="line" name="sv02"/>
      <point x="749" y="700" type="line" name="sh07"/>
      <point x="745" y="673" type="line"/>
      <point x="668" y="673" type="line" name="dh02"/>
      <point x="605" y="226" type="line" name="sh08"/>
      <point x="597" y="169" name="fh05"/>
      <point x="550" y="81" name="fh06"/>
      <point x="515.0" y="51.5" type="qcurve" smooth="yes" name="inserted"/>
      <point x="480" y="22" name="fh07"/>
      <point x="391" y="-8"/>
      <point x="342" y="-8" type="qcurve" name="ab01"/>
      <point x="292" y="-8"/>
      <point x="212" y="22" name="fh08"/>
      <point x="185.5" y="51.5" type="qcurve" smooth="yes" name="inserted"/>
      <point x="159" y="81" name="fh09"/>
      <point x="136" y="169"/>
      <point x="144" y="226" type="qcurve" name="sh09"/>
      <point x="207" y="673" type="line" name="dh01"/>
      <point x="130" y="673" type="line" name="sh10"/>
    </contour>
  </outline>
</glyph>
<glyph name="V" format="1">
  <advance width="837"/>
  <unicode hex="0056"/>
  <outline>
    <contour>
      <point x="137" y="700" type="line" name="at01"/>
      <point x="325" y="700" type="line" name="sh02"/>
      <point x="321" y="673" type="line"/>
      <point x="246" y="673" type="line" name="sh01"/>
      <point x="290" y="518"/>
      <point x="376" y="212"/>
      <point x="421" y="57" type="qcurve"/>
      <point x="426" y="30" type="line" name="sh03"/>
      <point x="439" y="57" type="line"/>
      <point x="526" y="212"/>
      <point x="698" y="518"/>
      <point x="785" y="673" type="qcurve" name="sh04"/>
      <point x="713" y="673" type="line" name="sh05"/>
      <point x="717" y="700" type="line" name="sv01"/>
      <point x="904" y="700" type="line" name="sh06"/>
      <point x="900" y="673" type="line"/>
      <point x="814" y="673" type="line" name="dh02"/>
      <point x="715" y="495"/>
      <point x="517" y="145"/>
      <point x="417" y="-32" type="qcurve" name="ih01"/>
      <point x="367" y="145"/>
      <point x="267" y="495"/>
      <point x="216" y="673" type="qcurve" name="dh01"/>
      <point x="133" y="673" type="line" name="sh07"/>
    </contour>
  </outline>
</glyph>
<glyph name="W" format="1">
  <advance width="1212"/>
  <unicode hex="0057"/>
  <outline>
    <contour>
      <point x="137" y="700" type="line" name="at01"/>
      <point x="325" y="700" type="line" name="sh02"/>
      <point x="321" y="673" type="line"/>
      <point x="246" y="673" type="line" name="sh01"/>
      <point x="289" y="518"/>
      <point x="375" y="211"/>
      <point x="421" y="57" type="qcurve" name="fh01"/>
      <point x="426" y="30" type="line" name="ih04"/>
      <point x="477" y="135"/>
      <point x="598" y="338"/>
      <point x="655" y="441" type="qcurve" name="ih03"/>
      <point x="639" y="499"/>
      <point x="606" y="614"/>
      <point x="589" y="673" type="qcurve" name="ih01"/>
      <point x="508" y="673" type="line" name="sh06"/>
      <point x="511" y="700" type="line" name="sv01"/>
      <point x="699" y="700" type="line" name="sh07"/>
      <point x="695" y="673" type="line"/>
      <point x="618" y="673" type="line" name="sh03"/>
      <point x="661" y="518" name="fh02"/>
      <point x="747" y="211"/>
      <point x="793" y="57" type="qcurve"/>
      <point x="798" y="30" type="line" name="ih02"/>
      <point x="811" y="57" type="line"/>
      <point x="898" y="212" name="fh03"/>
      <point x="1070" y="518"/>
      <point x="1158" y="673" type="qcurve" name="sh04"/>
      <point x="1087" y="673" type="line" name="sh08"/>
      <point x="1091" y="700" type="line" name="sv02"/>
      <point x="1279" y="700" type="line" name="sh09"/>
      <point x="1275" y="673" type="line"/>
      <point x="1186" y="673" type="line" name="dh02"/>
      <point x="1087" y="495"/>
      <point x="889" y="145" name="fh04"/>
      <point x="790" y="-32" type="qcurve" name="sh05"/>
      <point x="671" y="385" type="line"/>
      <point x="665" y="410" type="line" name="ih05"/>
      <point x="606" y="299"/>
      <point x="479" y="78" name="fh05"/>
      <point x="417" y="-32" type="qcurve" name="sh10"/>
      <point x="367" y="145"/>
      <point x="267" y="495"/>
      <point x="216" y="673" type="qcurve" name="dh01"/>
      <point x="133" y="673" type="line" name="sh11"/>
    </contour>
  </outline>
</glyph>
<glyph name="Z" format="1">
  <advance width="629"/>
  <unicode hex="005A"/>
  <outline>
    <contour>
      <point x="620" y="188" type="line" name="sh01"/>
      <point x="594" y="0" type="line" name="sh02"/>
      <point x="35" y="0" type="line" name="dh01"/>
      <point x="38" y="27" type="line" name="sv01"/>
      <point x="623" y="673" type="line" name="sh03"/>
      <point x="146" y="673" type="line" name="sh04"/>
      <point x="155" y="735" type="line" name="sh05"/>
      <point x="184" y="735" type="line" name="sh06"/>
      <point x="179" y="700" type="line" name="sh07"/>
      <point x="663" y="700" type="line" name="dh02"/>
      <point x="659" y="673" type="line" name="sv02"/>
      <point x="74" y="27" type="line" name="sh08"/>
      <point x="570" y="27" type="line" name="sh10"/>
      <point x="593" y="188" type="line" name="sh09"/>
    </contour>
  </outline>
</glyph>
<glyph name="bracketright" format="1">
  <advance width="342"/>
  <unicode hex="005D"/>
  <outline>
    <contour>
      <point x="313" y="746" type="line" name="sh01"/>
      <point x="188" y="-149" type="line" name="ah01"/>
      <point x="19" y="-149" type="line" name="sh02"/>
      <point x="23" y="-122" type="line"/>
      <point x="162" y="-122" type="line" name="sh03"/>
      <point x="280" y="719" type="line" name="sh04"/>
      <point x="140" y="719" type="line" name="sh05"/>
      <point x="144" y="746" type="line"/>
    </contour>
  </outline>
</glyph>
<glyph name="asciicircum" format="1">
  <advance width="470"/>
  <unicode hex="005E"/>
  <outline>
    <contour>
      <point x="244" y="660" type="qcurve" name="ih01"/>
      <point x="268" y="615"/>
      <point x="315" y="524"/>
      <point x="339" y="479" type="qcurve" name="dh02"/>
      <point x="314" y="479" type="line" name="sh01"/>
      <point x="295" y="514"/>
      <point x="258" y="582"/>
      <point x="238" y="617" type="qcurve" name="sh02"/>
      <point x="124" y="479" type="line" name="sh03"/>
      <point x="99" y="479" type="line" name="dh01"/>
      <point x="135" y="524"/>
      <point x="208" y="615"/>
    </contour>
  </outline>
</glyph>
<glyph name="underscore" format="1">
  <advance width="600"/>
  <unicode hex="005F"/>
  <outline>
    <contour>
      <point x="498" y="0" type="line" name="sh01"/>
      <point x="98" y="0" type="line" name="sh02"/>
      <point x="101" y="27" type="line" name="sv01"/>
      <point x="501" y="27" type="line"/>
    </contour>
  </outline>
</glyph>
<glyph name="grave" format="1">
  <advance width="200"/>
  <unicode hex="0060"/>
  <outline>
    <contour>
      <point x="19" y="612" type="line" name="sh01"/>
      <point x="36" y="579"/>
      <point x="69" y="512"/>
      <point x="86" y="479" type="qcurve" name="sh02"/>
      <point x="62" y="479" type="line" name="sh03"/>
      <point x="43" y="512"/>
      <point x="8" y="579"/>
      <point x="-9" y="612" type="qcurve" name="ah01"/>
    </contour>
  </outline>
</glyph>
<glyph name="a" format="1">
  <advance width="535"/>
  <unicode hex="0061"/>
  <outline>
    <contour>
      <point x="62" y="188" type="qcurve" name="dh01"/>
      <point x="68" y="228" name="fh01"/>
      <point x="108" y="299" name="fh02"/>
      <point x="138.0" y="325.5" type="qcurve" smooth="yes" name="inserted"/>
      <point x="168" y="352" name="fh03"/>
      <point x="244" y="383" name="fh04"/>
      <point x="285" y="383" type="qcurve" name="at01"/>
      <point x="315" y="383"/>
      <point x="366" y="366" name="fh05"/>
      <point x="386.0" y="351.0" type="qcurve" smooth="yes" name="inserted"/>
      <point x="406" y="336" name="fh06"/>
      <point x="434" y="296" name="fh07"/>
      <point x="440" y="274" type="qcurve" name="ih01"/>
      <point x="443" y="299"/>
      <point x="453" y="349"/>
      <point x="458" y="375" type="qcurve" name="sh01"/>
      <point x="479" y="375" type="line" name="dh02"/>
      <point x="430" y="27" type="line" name="sh03"/>
      <point x="504" y="27" type="line" name="sh04"/>
      <point x="500" y="0" type="line" name="ab02"/>
      <point x="401" y="0" type="line" name="sh02"/>
      <point x="408" y="47" type="line"/>
      <point x="410" y="61"/>
      <point x="414" y="88"/>
      <point x="416" y="102" type="qcurve" name="ih02"/>
      <point x="404" y="80"/>
      <point x="366" y="40" name="fh08"/>
      <point x="342.0" y="25.0" type="qcurve" smooth="yes" name="inserted"/>
      <point x="318" y="10"/>
      <point x="261" y="-7"/>
      <point x="230" y="-7" type="qcurve" name="ab01"/>
      <point x="189" y="-7"/>
      <point x="122" y="24" name="fh09"/>
      <point x="99.5" y="50.0" type="qcurve" smooth="yes" name="inserted"/>
      <point x="77" y="76"/>
      <point x="56" y="147"/>
    </contour>
    <contour>
      <point x="90" y="188" type="qcurve" name="sh05"/>
      <point x="85" y="153"/>
      <point x="102" y="92" name="fh10"/>
      <point x="121.5" y="69.5" type="qcurve" smooth="yes" name="inserted"/>
      <point x="141" y="47" name="fh11"/>
      <point x="198" y="21"/>
      <point x="233" y="21" type="qcurve" name="sv01"/>
      <point x="268" y="21"/>
      <point x="334" y="47" name="fv01"/>
      <point x="360.0" y="69.5" type="qcurve" smooth="yes" name="inserted"/>
      <point x="386" y="92" name="fh12"/>
      <point x="421" y="153" name="fh13"/>
      <point x="426" y="188" type="qcurve" name="ih03"/>
      <point x="431" y="223" name="fh14"/>
      <point x="413" y="284" name="fh15"/>
      <point x="393.5" y="307.0" type="qcurve" smooth="yes" name="inserted"/>
      <point x="374" y="330"/>
      <point x="316" y="356"/>
      <point x="281" y="356" type="qcurve" name="sv02"/>
      <point x="246" y="356"/>
      <point x="181" y="330" name="fh16"/>
      <point x="155.0" y="307.0" type="qcurve" smooth="yes" name="inserted"/>
      <point x="129" y="284" name="fh17"/>
      <point x="95" y="223"/>
    </contour>
  </outline>
</glyph>
<glyph name="c" format="1">
  <advance width="389"/>
  <unicode hex="0063"/>
  <outline>
    <contour>
      <point x="360" y="36" type="line" name="sh01"/>
      <point x="331" y="16"/>
      <point x="265" y="-7"/>
      <point x="230" y="-7" type="qcurve" name="ab01"/>
      <point x="189" y="-7"/>
      <point x="123" y="24" name="fh01"/>
      <point x="100.0" y="50.0" type="qcurve" smooth="yes" name="inserted"/>
      <point x="77" y="76"/>
      <point x="56" y="147"/>
      <point x="62" y="188" type="qcurve" name="dh01"/>
      <point x="68" y="228"/>
      <point x="108" y="300" name="fh02"/>
      <point x="138.0" y="326.0" type="qcurve" smooth="yes" name="inserted"/>
      <point x="168" y="352" name="fh03"/>
      <point x="243" y="383"/>
      <point x="284" y="383" type="qcurve" name="at01"/>
      <point x="320" y="383"/>
      <point x="380" y="360"/>
      <point x="402" y="340" type="qcurve" name="dh02"/>
      <point x="389" y="247" type="line" name="sh02"/>
      <point x="363" y="247" type="line" name="sh04"/>
      <point x="374" y="324" type="line" name="sh03"/>
      <point x="355" y="339"/>
      <point x="308" y="356"/>
      <point x="280" y="356" type="qcurve" name="sv02"/>
      <point x="245" y="356"/>
      <point x="181" y="330"/>
      <point x="155.0" y="307.0" type="qcurve" smooth="yes" name="inserted"/>
      <point x="129" y="284" name="fh04"/>
      <point x="95" y="223"/>
      <point x="90" y="188" type="qcurve" name="sh05"/>
      <point x="85" y="153"/>
      <point x="102" y="92" name="fh05"/>
      <point x="121.5" y="69.5" type="qcurve" smooth="yes" name="inserted"/>
      <point x="141" y="47" name="fh06"/>
      <point x="198" y="21"/>
      <point x="233" y="21" type="qcurve" name="sv03"/>
      <point x="264" y="21"/>
      <point x="320" y="40"/>
      <point x="344" y="57" type="qcurve" name="sv01"/>
    </contour>
  </outline>
</glyph>
<glyph name="f" format="1">
  <advance width="292"/>
  <unicode hex="0066"/>
  <outline>
    <contour>
      <point x="38" y="27" type="line" name="sv01"/>
      <point x="99" y="27" type="line" name="dh01"/>
      <point x="144" y="348" type="line" name="ih01"/>
      <point x="83" y="348" type="line" name="sh02"/>
      <point x="87" y="375" type="line"/>
      <point x="148" y="375" type="line" name="ih02"/>
      <point x="168" y="518" type="line" name="sh01"/>
      <point x="176" y="573" name="fh01"/>
      <point x="219" y="659" name="mh01"/>
      <point x="249.5" y="688.0" type="qcurve" smooth="yes" name="inserted"/>
      <point x="280" y="717" name="fh02"/>
      <point x="356" y="748"/>
      <point x="397" y="750" type="qcurve" name="sh03"/>
      <point x="393" y="723" type="line" name="sv02"/>
      <point x="359" y="723"/>
      <point x="294" y="694" name="fh03"/>
      <point x="267.0" y="668.0" type="qcurve" smooth="yes" name="inserted"/>
      <point x="240" y="642" name="fh04"/>
      <point x="203" y="567" name="fh05"/>
      <point x="196" y="520" type="qcurve" name="sh04"/>
      <point x="176" y="375" type="line" name="ih03"/>
      <point x="303" y="375" type="line" name="sh05"/>
      <point x="299" y="348" type="line"/>
      <point x="172" y="348" type="line" name="ih04"/>
      <point x="127" y="27" type="line" name="dh02"/>
      <point x="222" y="27" type="line" name="sh06"/>
      <point x="219" y="0" type="line"/>
      <point x="35" y="0" type="line" name="sh07"/>
    </contour>
  </outline>
</glyph>
<glyph name="h" format="1">
  <advance width="534"/>
  <unicode hex="0068"/>
  <outline>
    <contour>
      <point x="318" y="27" type="line" name="sv02"/>
      <point x="397" y="27" type="line" name="sh01"/>
      <point x="430" y="268" type="line" name="sh02"/>
      <point x="434" y="303"/>
      <point x="394" y="353" name="fh01"/>
      <point x="352" y="355" type="qcurve" name="sv03"/>
      <point x="320" y="355"/>
      <point x="258" y="334"/>
      <point x="233.5" y="315.0" type="qcurve" smooth="yes" name="inserted"/>
      <point x="209" y="296"/>
      <point x="175" y="243"/>
      <point x="170" y="212" type="qcurve" name="ih01"/>
      <point x="144" y="27" type="line" name="sh03"/>
      <point x="222" y="27" type="line" name="sh05"/>
      <point x="219" y="0" type="line"/>
      <point x="35" y="0" type="line" name="sh06"/>
      <point x="38" y="27" type="line" name="sv01"/>
      <point x="116" y="27" type="line" name="dh01"/>
      <point x="215" y="723" type="line" name="sh07"/>
      <point x="141" y="723" type="line" name="sh08"/>
      <point x="145" y="750" type="line" name="at02"/>
      <point x="246" y="750" type="line" name="sh04"/>
      <point x="186" y="322" type="line"/>
      <point x="176" y="277" type="line" name="ih02"/>
      <point x="204" y="325"/>
      <point x="299" y="382"/>
      <point x="356" y="382" type="qcurve" name="at01"/>
      <point x="410" y="382" name="fh02"/>
      <point x="464" y="320" name="fh03"/>
      <point x="459" y="270" type="qcurve" name="sh09"/>
      <point x="424" y="27" type="line" name="dh02"/>
      <point x="502" y="27" type="line" name="sh10"/>
      <point x="499" y="0" type="line"/>
      <point x="315" y="0" type="line" name="sh11"/>
    </contour>
  </outline>
</glyph>
<glyph name="i" format="1">
  <advance width="254"/>
  <unicode hex="0069"/>
  <outline>
    <contour>
      <point x="38" y="27" type="line" name="sv01"/>
      <point x="118" y="27" type="line" name="dh01"/>
      <point x="163" y="348" type="line" name="sh01"/>
      <point x="83" y="348" type="line" name="sh02"/>
      <point x="87" y="375" type="line" name="at01"/>
      <point x="194" y="375" type="line" name="sh03"/>
      <point x="145" y="27" type="line" name="dh02"/>
      <point x="222" y="27" type="line" name="sh04"/>
      <point x="219" y="0" type="line"/>
      <point x="35" y="0" type="line" name="sh05"/>
    </contour>
    <contour>
      <point x="173" y="504" type="qcurve" name="sh07"/>
      <point x="175" y="515"/>
      <point x="192" y="531"/>
      <point x="203" y="531" type="qcurve" name="sv03"/>
      <point x="214" y="531"/>
      <point x="227" y="515"/>
      <point x="226" y="504" type="qcurve" name="sh06"/>
      <point x="224" y="493"/>
      <point x="206" y="478"/>
      <point x="195" y="478" type="qcurve" name="sv02"/>
      <point x="184" y="478"/>
      <point x="171" y="493"/>
    </contour>
  </outline>
</glyph>
<glyph name="j" format="1">
  <advance width="175"/>
  <unicode hex="006A"/>
  <outline>
    <contour>
      <point x="61" y="375" type="line" name="at01"/>
      <point x="167" y="375" type="line" name="sh01"/>
      <point x="114" y="-6" type="line" name="dh02"/>
      <point x="106" y="-64"/>
      <point x="60" y="-151"/>
      <point x="28" y="-180" type="qcurve" name="sh03"/>
      <point x="9" y="-161" type="line" name="sh02"/>
      <point x="38" y="-135"/>
      <point x="78" y="-58"/>
      <point x="85" y="-8" type="qcurve" name="dh01"/>
      <point x="135" y="348" type="line" name="sh04"/>
      <point x="58" y="348" type="line" name="sh05"/>
    </contour>
    <contour>
      <point x="145" y="504" type="qcurve" name="sh07"/>
      <point x="147" y="515"/>
      <point x="165" y="531"/>
      <point x="176" y="531" type="qcurve" name="sv02"/>
      <point x="186" y="531"/>
      <point x="200" y="515"/>
      <point x="198" y="504" type="qcurve" name="sh06"/>
      <point x="196" y="493"/>
      <point x="179" y="478"/>
      <point x="168" y="478" type="qcurve" name="sv01"/>
      <point x="157" y="478"/>
      <point x="143" y="493"/>
    </contour>
  </outline>
</glyph>
<glyph name="l" format="1">
  <advance width="254"/>
  <unicode hex="006C"/>
  <outline>
    <contour>
      <point x="38" y="27" type="line" name="sv01"/>
      <point x="111" y="27" type="line" name="dh01"/>
      <point x="209" y="723" type="line" name="sh01"/>
      <point x="137" y="723" type="line" name="sh02"/>
      <point x="141" y="750" type="line" name="at01"/>
      <point x="241" y="750" type="line" name="sh03"/>
      <point x="139" y="27" type="line" name="dh02"/>
      <point x="222" y="27" type="line" name="sh04"/>
      <point x="219" y="0" type="line"/>
      <point x="35" y="0" type="line" name="sh05"/>
    </contour>
  </outline>
</glyph>
<glyph name="n" format="1">
  <advance width="534"/>
  <unicode hex="006E"/>
  <outline>
    <contour>
      <point x="318" y="27" type="line"/>
      <point x="397" y="27" type="line" name="sh01"/>
      <point x="430" y="268" type="line" name="sh02"/>
      <point x="434" y="303" name="fh01"/>
      <point x="394" y="353" name="fh02"/>
      <point x="352" y="355" type="qcurve" name="sv02"/>
      <point x="320" y="355"/>
      <point x="258" y="334"/>
      <point x="233.5" y="315.0" type="qcurve" smooth="yes" name="inserted"/>
      <point x="209" y="296"/>
      <point x="175" y="243"/>
      <point x="170" y="212" type="qcurve" name="sh04"/>
      <point x="144" y="27" type="line" name="sh03"/>
      <point x="222" y="27" type="line" name="sh05"/>
      <point x="219" y="0" type="line"/>
      <point x="35" y="0" type="line" name="sh06"/>
      <point x="38" y="27" type="line" name="sv01"/>
      <point x="116" y="27" type="line" name="dh01"/>
      <point x="162" y="348" type="line" name="sh07"/>
      <point x="88" y="348" type="line" name="sh08"/>
      <point x="92" y="375" type="line" name="at02"/>
      <point x="186" y="375" type="line" name="sh10"/>
      <point x="182" y="331" type="line"/>
      <point x="180" y="316"/>
      <point x="178" y="292"/>
      <point x="176" y="277" type="qcurve" name="sh09"/>
      <point x="203" y="325"/>
      <point x="299" y="382"/>
      <point x="356" y="382" type="qcurve" name="at01"/>
      <point x="410" y="382" name="fh03"/>
      <point x="464" y="320" name="fh04"/>
      <point x="459" y="270" type="qcurve" name="sh11"/>
      <point x="424" y="27" type="line" name="dh02"/>
      <point x="502" y="27" type="line" name="sh12"/>
      <point x="499" y="0" type="line"/>
      <point x="315" y="0" type="line" name="sh13"/>
    </contour>
  </outline>
</glyph>
<glyph name="p" format="1">
  <advance width="535"/>
  <unicode hex="0070"/>
  <outline>
    <contour>
      <point x="1" y="-223" type="line"/>
      <point x="66" y="-223" type="line" name="dh01"/>
      <point x="147" y="348" type="line" name="sh01"/>
      <point x="73" y="348" type="line" name="sh02"/>
      <point x="77" y="375" type="line" name="at02"/>
      <point x="172" y="375" type="line" name="sh04"/>
      <point x="169" y="349"/>
      <point x="164" y="297"/>
      <point x="160" y="271" type="qcurve" name="ih01"/>
      <point x="172" y="293"/>
      <point x="211" y="334"/>
      <point x="235.5" y="349.0" type="qcurve" smooth="yes" name="inserted"/>
      <point x="260" y="364"/>
      <point x="317" y="382"/>
      <point x="347" y="382" type="qcurve" name="at01"/>
      <point x="388" y="382"/>
      <point x="455" y="351" name="fh01"/>
      <point x="478.0" y="325.0" type="qcurve" smooth="yes" name="inserted"/>
      <point x="501" y="299" name="fh02"/>
      <point x="522" y="227"/>
      <point x="516" y="187" type="qcurve" name="dh02"/>
      <point x="510" y="146"/>
      <point x="469" y="75" name="fh03"/>
      <point x="439.0" y="49.0" type="qcurve" smooth="yes" name="inserted"/>
      <point x="409" y="23" name="fh04"/>
      <point x="333" y="-8" name="fh05"/>
      <point x="292" y="-8" type="qcurve" name="ab01"/>
      <point x="231" y="-8"/>
      <point x="149" y="55" name="fh06"/>
      <point x="137" y="100" type="qcurve" name="ih02"/>
      <point x="136" y="88"/>
      <point x="135" y="64"/>
      <point x="134" y="53" type="qcurve"/>
      <point x="95" y="-223" type="line" name="sh03"/>
      <point x="184" y="-223" type="line" name="sh05"/>
      <point x="181" y="-250" type="line" name="ab02"/>
      <point x="-2" y="-250" type="line" name="sh06"/>
    </contour>
    <contour>
      <point x="488" y="187" type="qcurve" name="sh07"/>
      <point x="493" y="222"/>
      <point x="475" y="283" name="fh07"/>
      <point x="455.5" y="305.5" type="qcurve" smooth="yes" name="inserted"/>
      <point x="436" y="328" name="fh08"/>
      <point x="379" y="354"/>
      <point x="344" y="354" type="qcurve" name="sv01"/>
      <point x="309" y="354"/>
      <point x="244" y="328"/>
      <point x="218.0" y="305.5" type="qcurve" smooth="yes" name="inserted"/>
      <point x="192" y="283" name="fh09"/>
      <point x="157" y="222" name="fh10"/>
      <point x="152" y="187" type="qcurve" name="ih03"/>
      <point x="147" y="152" name="fv01"/>
      <point x="164" y="91" name="fh11"/>
      <point x="183.5" y="68.0" type="qcurve" smooth="yes" name="inserted"/>
      <point x="203" y="45" name="fh12"/>
      <point x="261" y="19"/>
      <point x="296" y="19" type="qcurve" name="sv02"/>
      <point x="331" y="19"/>
      <point x="396" y="45" name="fh13"/>
      <point x="422.0" y="68.0" type="qcurve" smooth="yes" name="inserted"/>
      <point x="448" y="91" name="fh14"/>
      <point x="483" y="152" name="fh15"/>
    </contour>
  </outline>
</glyph>
<glyph name="q" format="1">
  <advance width="536"/>
  <unicode hex="0071"/>
  <outline>
    <contour>
      <point x="315" y="-223" type="line" name="sv01"/>
      <point x="401" y="-223" type="line" name="sh01"/>
      <point x="440" y="53" type="line"/>
      <point x="442" y="64"/>
      <point x="447" y="88"/>
      <point x="449" y="100" type="qcurve" name="ih01"/>
      <point x="437" y="77"/>
      <point x="399" y="38"/>
      <point x="375.0" y="23.5" type="qcurve" smooth="yes" name="inserted"/>
      <point x="351" y="9"/>
      <point x="294" y="-8"/>
      <point x="264" y="-8" type="qcurve" name="ab01"/>
      <point x="223" y="-8"/>
      <point x="156" y="23" name="fh01"/>
      <point x="133.5" y="49.0" type="qcurve" smooth="yes" name="inserted"/>
      <point x="111" y="75" name="fh02"/>
      <point x="90" y="146"/>
      <point x="96" y="187" type="qcurve" name="dh01"/>
      <point x="102" y="227" name="fh03"/>
      <point x="142" y="299" name="fh04"/>
      <point x="172.0" y="325.0" type="qcurve" smooth="yes" name="inserted"/>
      <point x="202" y="351" name="fh05"/>
      <point x="278" y="382" name="fh06"/>
      <point x="319" y="382" type="qcurve" name="at01"/>
      <point x="349" y="382"/>
      <point x="401" y="364" name="fh07"/>
      <point x="421.0" y="349.0" type="qcurve" smooth="yes" name="inserted"/>
      <point x="441" y="334"/>
      <point x="468" y="293" name="fh08"/>
      <point x="474" y="271" type="qcurve" name="ih02"/>
      <point x="478" y="297"/>
      <point x="488" y="349"/>
      <point x="492" y="375" type="qcurve" name="sh02"/>
      <point x="588" y="375" type="line" name="sh04"/>
      <point x="584" y="348" type="line" name="sv02"/>
      <point x="510" y="348" type="line" name="sh03"/>
      <point x="429" y="-223" type="line" name="dh02"/>
      <point x="499" y="-223" type="line" name="sh05"/>
      <point x="496" y="-250" type="line"/>
      <point x="312" y="-250" type="line" name="sh06"/>
    </contour>
    <contour>
      <point x="124" y="187" type="qcurve" name="sh07"/>
      <point x="119" y="152"/>
      <point x="136" y="91" name="fh09"/>
      <point x="155.5" y="68.0" type="qcurve" smooth="yes" name="inserted"/>
      <point x="175" y="45" name="fh10"/>
      <point x="232" y="19"/>
      <point x="267" y="19" type="qcurve" name="sv03"/>
      <point x="302" y="19"/>
      <point x="368" y="45" name="fh11"/>
      <point x="394.0" y="68.0" type="qcurve" smooth="yes" name="inserted"/>
      <point x="420" y="91" name="fh12"/>
      <point x="455" y="152" name="fh13"/>
      <point x="460" y="187" type="qcurve" name="ih03"/>
      <point x="465" y="222" name="fh14"/>
      <point x="447" y="283" name="fh15"/>
      <point x="427.5" y="305.5" type="qcurve" smooth="yes" name="inserted"/>
      <point x="408" y="328"/>
      <point x="350" y="354"/>
      <point x="315" y="354" type="qcurve" name="sv04"/>
      <point x="280" y="354"/>
      <point x="215" y="328" name="fh16"/>
      <point x="189.0" y="305.5" type="qcurve" smooth="yes" name="inserted"/>
      <point x="163" y="283" name="fh17"/>
      <point x="129" y="222"/>
    </contour>
  </outline>
</glyph>
<glyph name="t" format="1">
  <advance width="307"/>
  <unicode hex="0074"/>
  <outline>
    <contour>
      <point x="209" y="619" type="line" name="sh01"/>
      <point x="237" y="619" type="line" name="sh03"/>
      <point x="203" y="375" type="line" name="ih01"/>
      <point x="324" y="375" type="line" name="sh04"/>
      <point x="320" y="348" type="line"/>
      <point x="199" y="348" type="line" name="ih02"/>
      <point x="154" y="27" type="line" name="sh02"/>
      <point x="238" y="27" type="line" name="dh02"/>
      <point x="235" y="0" type="line"/>
      <point x="123" y="0" type="line" name="dh01"/>
      <point x="171" y="348" type="line" name="ih03"/>
      <point x="83" y="348" type="line" name="sh05"/>
      <point x="87" y="375" type="line"/>
      <point x="175" y="375" type="line" name="ih04"/>
    </contour>
  </outline>
</glyph>
<glyph name="w" format="1">
  <advance width="854"/>
  <unicode hex="0077"/>
  <outline>
    <contour>
      <point x="720" y="375" type="line" name="sv02"/>
      <point x="874" y="375" type="line" name="sh01"/>
      <point x="870" y="348" type="line"/>
      <point x="804" y="348" type="line" name="dh02"/>
      <point x="744" y="254"/>
      <point x="626" y="71" name="fh01"/>
      <point x="568" y="-23" type="qcurve" name="sh04"/>
      <point x="469" y="250" type="line" name="ih03"/>
      <point x="296" y="-23" type="line" name="sh06"/>
      <point x="261" y="71"/>
      <point x="194" y="254"/>
      <point x="162" y="348" type="qcurve" name="dh01"/>
      <point x="86" y="348" type="line" name="sh07"/>
      <point x="90" y="375" type="line" name="at01"/>
      <point x="260" y="375" type="line" name="sh08"/>
      <point x="256" y="348" type="line"/>
      <point x="190" y="348" type="line" name="sh05"/>
      <point x="219" y="268"/>
      <point x="275" y="109"/>
      <point x="303" y="30" type="qcurve" name="ih05"/>
      <point x="339" y="89"/>
      <point x="412" y="205"/>
      <point x="449" y="263" type="qcurve" name="ih04"/>
      <point x="443" y="284" name="fh02"/>
      <point x="432" y="326"/>
      <point x="427" y="348" type="qcurve" name="ih01"/>
      <point x="358" y="348" type="line" name="sh09"/>
      <point x="362" y="375" type="line" name="sv01"/>
      <point x="535" y="375" type="line" name="sh10"/>
      <point x="531" y="348" type="line"/>
      <point x="462" y="348" type="line" name="sh02"/>
      <point x="491" y="268"/>
      <point x="547" y="109"/>
      <point x="575" y="30" type="qcurve" name="ih02"/>
      <point x="624" y="111"/>
      <point x="724" y="268"/>
      <point x="775" y="348" type="qcurve" name="sh03"/>
      <point x="716" y="348" type="line" name="sh11"/>
    </contour>
  </outline>
</glyph>
<glyph name="x" format="1">
  <advance width="496"/>
  <unicode hex="0078"/>
  <outline>
    <contour>
      <point x="87" y="375" type="line" name="at01"/>
      <point x="271" y="375" type="line" name="sh03"/>
      <point x="267" y="348" type="line"/>
      <point x="192" y="348" type="line" name="sh02"/>
      <point x="276" y="206" type="line" name="ih03"/>
      <point x="398" y="348" type="line" name="sh04"/>
      <point x="330" y="348" type="line" name="sh05"/>
      <point x="334" y="375" type="line" name="sv01"/>
      <point x="513" y="375" type="line" name="sh06"/>
      <point x="509" y="348" type="line"/>
      <point x="431" y="348" type="line" name="dh02"/>
      <point x="290" y="183" type="line" name="ih02"/>
      <point x="313" y="144"/>
      <point x="359" y="67"/>
      <point x="382" y="27" type="qcurve" name="sh07"/>
      <point x="464" y="27" type="line" name="sh08"/>
      <point x="461" y="0" type="line"/>
      <point x="277" y="0" type="line" name="sh10"/>
      <point x="280" y="27" type="line" name="sv03"/>
      <point x="348" y="27" type="line" name="sh09"/>
      <point x="327" y="63"/>
      <point x="286" y="132"/>
      <point x="266" y="167" type="qcurve" name="ih04"/>
      <point x="236" y="132"/>
      <point x="176" y="62"/>
      <point x="146" y="27" type="qcurve" name="sh11"/>
      <point x="217" y="27" type="line" name="sh12"/>
      <point x="214" y="0" type="line"/>
      <point x="35" y="0" type="line" name="sh13"/>
      <point x="38" y="27" type="line" name="sv02"/>
      <point x="111" y="27" type="line" name="dh01"/>
      <point x="146" y="68"/>
      <point x="217" y="148"/>
      <point x="252" y="190" type="qcurve" name="ih01"/>
      <point x="228" y="230"/>
      <point x="180" y="308"/>
      <point x="157" y="348" type="qcurve" name="sh01"/>
      <point x="83" y="348" type="line" name="sh14"/>
    </contour>
  </outline>
</glyph>
<glyph name="z" format="1">
  <advance width="430"/>
  <unicode hex="007A"/>
  <outline>
    <contour>
      <point x="406" y="80" type="line" name="sh01"/>
      <point x="395" y="0" type="line" name="sh02"/>
      <point x="35" y="0" type="line" name="dh01"/>
      <point x="38" y="27" type="line" name="sv01"/>
      <point x="129" y="108"/>
      <point x="297" y="267"/>
      <point x="387" y="348" type="qcurve" name="sh03"/>
      <point x="95" y="348" type="line" name="sh04"/>
      <point x="104" y="410" type="line" name="sh05"/>
      <point x="130" y="410" type="line" name="sh06"/>
      <point x="125" y="375" type="line" name="sh07"/>
      <point x="429" y="375" type="line" name="dh02"/>
      <point x="425" y="348" type="line" name="sv02"/>
      <point x="335" y="267"/>
      <point x="167" y="108"/>
      <point x="76" y="27" type="qcurve" name="sh08"/>
      <point x="372" y="27" type="line" name="sh10"/>
      <point x="380" y="80" type="line" name="sh09"/>
    </contour>
  </outline>
</glyph>
<glyph name="bar" format="1">
  <advance width="229"/>
  <unicode hex="007C"/>
  <outline>
    <contour>
      <point x="97" y="-232" type="line" name="ah01"/>
      <point x="227" y="700" type="line" name="sh01"/>
      <point x="255" y="700" type="line" name="sh03"/>
      <point x="125" y="-232" type="line" name="sh02"/>
    </contour>
  </outline>
</glyph>
<glyph name="asciitilde" format="1">
  <advance width="489"/>
  <unicode hex="007E"/>
  <outline>
    <contour>
      <point x="271" y="494" type="qcurve" name="fv01"/>
      <point x="257" y="511" name="fv02"/>
      <point x="235" y="523"/>
      <point x="221" y="523" type="qcurve" name="sv01"/>
      <point x="213" y="523"/>
      <point x="193" y="519"/>
      <point x="182.5" y="513.0" type="qcurve" smooth="yes" name="inserted"/>
      <point x="172" y="507" name="fh01"/>
      <point x="154" y="486"/>
      <point x="150" y="470" type="qcurve" name="sh01"/>
      <point x="145" y="471"/>
      <point x="136" y="471"/>
      <point x="132" y="472" type="qcurve" name="dh01"/>
      <point x="135" y="491"/>
      <point x="155" y="518" name="fh02"/>
      <point x="168.0" y="526.5" type="qcurve" smooth="yes" name="inserted"/>
      <point x="181" y="535"/>
      <point x="211" y="543"/>
      <point x="225" y="543" type="qcurve" name="sv02"/>
      <point x="245" y="543"/>
      <point x="277" y="523" name="fv03"/>
      <point x="291" y="506" type="qcurve" name="fv04"/>
      <point x="304" y="489" name="fv05"/>
      <point x="326" y="477"/>
      <point x="340" y="477" type="qcurve" name="sv03"/>
      <point x="347" y="477"/>
      <point x="368" y="481"/>
      <point x="378.5" y="487.0" type="qcurve" smooth="yes" name="inserted"/>
      <point x="389" y="493" name="fh03"/>
      <point x="407" y="514"/>
      <point x="411" y="530" type="qcurve" name="sh02"/>
      <point x="416" y="529"/>
      <point x="425" y="529"/>
      <point x="430" y="528" type="qcurve" name="dh02"/>
      <point x="422" y="490" name="fh04"/>
      <point x="365" y="457"/>
      <point x="337" y="457" type="qcurve" name="av01"/>
      <point x="317" y="457"/>
      <point x="285" y="477" name="fv06"/>
    </contour>
  </outline>
</glyph>
<glyph name="yen" format="1">
  <advance width="732"/>
  <unicode hex="00A5"/>
  <outline>
    <contour>
      <point x="547" y="100" type="line"/>
      <point x="396" y="100" type="line" name="ih01"/>
      <point x="385" y="27" type="line" name="dh02"/>
      <point x="464" y="27" type="line" name="sh02"/>
      <point x="461" y="0" type="line"/>
      <point x="274" y="0" type="line" name="sh03"/>
      <point x="277" y="27" type="line" name="sv01"/>
      <point x="353" y="27" type="line" name="dh01"/>
      <point x="364" y="100" type="line" name="ih02"/>
      <point x="213" y="100" type="line" name="sh05"/>
      <point x="217" y="127" type="line"/>
      <point x="368" y="127" type="line" name="ih03"/>
      <point x="386" y="263" type="line" name="sh04"/>
      <point x="235" y="263" type="line" name="sh06"/>
      <point x="239" y="290" type="line"/>
      <point x="374" y="290" type="line" name="ih04"/>
      <point x="199" y="673" type="line" name="sh07"/>
      <point x="129" y="673" type="line" name="sh08"/>
      <point x="133" y="700" type="line" name="at01"/>
      <point x="321" y="700" type="line" name="sh10"/>
      <point x="317" y="673" type="line"/>
      <point x="233" y="673" type="line" name="sh09"/>
      <point x="274" y="583" name="fh01"/>
      <point x="360" y="406" name="fh02"/>
      <point x="397" y="314" type="qcurve"/>
      <point x="406" y="287" type="line" name="ih05"/>
      <point x="407" y="287" type="line"/>
      <point x="421" y="314" type="line"/>
      <point x="686" y="673" type="line" name="sh12"/>
      <point x="604" y="673" type="line" name="sh13"/>
      <point x="608" y="700" type="line" name="sv02"/>
      <point x="795" y="700" type="line" name="sh14"/>
      <point x="791" y="673" type="line"/>
      <point x="720" y="673" type="line" name="sh11"/>
      <point x="650" y="576"/>
      <point x="509" y="387"/>
      <point x="438" y="290" type="qcurve" name="ih06"/>
      <point x="572" y="290" type="line" name="sh15"/>
      <point x="568" y="263" type="line"/>
      <point x="418" y="263" type="line" name="sh01"/>
      <point x="400" y="127" type="line" name="ih07"/>
      <point x="550" y="127" type="line" name="sh16"/>
    </contour>
  </outline>
</glyph>
<glyph name="section" format="1">
  <advance width="500"/>
  <unicode hex="00A7"/>
  <outline>
    <contour>
      <point x="225" y="321" type="qcurve" name="sh01"/>
      <point x="233" y="294" name="fh01"/>
      <point x="279" y="267"/>
      <point x="308" y="269" type="qcurve" name="iv01"/>
      <point x="327" y="270"/>
      <point x="361" y="289"/>
      <point x="373.5" y="303.0" type="qcurve" smooth="yes" name="inserted"/>
      <point x="386" y="317"/>
      <point x="401" y="351"/>
      <point x="401" y="369" type="qcurve" name="sh02"/>
      <point x="401" y="389"/>
      <point x="387" y="421" name="fh02"/>
      <point x="374.5" y="432.0" type="qcurve" smooth="yes" name="inserted"/>
      <point x="362" y="443" name="fh03"/>
      <point x="330" y="453"/>
      <point x="312" y="452" type="qcurve" name="sv01"/>
      <point x="286" y="450"/>
      <point x="247" y="423"/>
      <point x="235.5" y="404.0" type="qcurve" smooth="yes" name="inserted"/>
      <point x="224" y="385"/>
      <point x="218" y="341"/>
    </contour>
    <contour>
      <point x="266" y="153" type="qcurve" name="sh03"/>
      <point x="244" y="201" name="fh04"/>
      <point x="214" y="269" name="fh05"/>
      <point x="201" y="300" type="qcurve" name="dh01"/>
      <point x="191" y="321"/>
      <point x="191" y="367"/>
      <point x="199.5" y="389.0" type="qcurve" smooth="yes" name="inserted"/>
      <point x="208" y="411" name="fh06"/>
      <point x="239" y="449" name="fh07"/>
      <point x="261" y="462" type="qcurve" name="fh08"/>
      <point x="287" y="476" name="sv02"/>
      <point x="343" y="476"/>
      <point x="366" y="465" type="qcurve" name="ih01"/>
      <point x="354" y="490" name="fh09"/>
      <point x="332" y="541" name="fh10"/>
      <point x="321" y="567" type="qcurve" name="sh04"/>
      <point x="310" y="593"/>
      <point x="302" y="631"/>
      <point x="303.0" y="645.0" type="qcurve" smooth="yes" name="inserted"/>
      <point x="304" y="659"/>
      <point x="315" y="680"/>
      <point x="323" y="688" type="qcurve"/>
      <point x="337" y="703" name="fv01"/>
      <point x="384" y="727"/>
      <point x="403" y="736" type="qcurve" name="av01"/>
      <point x="405" y="731"/>
      <point x="410" y="719"/>
      <point x="413" y="713" type="qcurve" name="sh05"/>
      <point x="399" y="705"/>
      <point x="375" y="693"/>
      <point x="361" y="685" type="qcurve" name="fh11"/>
      <point x="333" y="670" name="fh12"/>
      <point x="331" y="619"/>
      <point x="352" y="569" type="qcurve" name="sh06"/>
      <point x="353" y="569" type="line"/>
      <point x="370" y="531" name="fh13"/>
      <point x="402" y="456" name="fh14"/>
      <point x="419" y="418" type="qcurve" name="dh02"/>
      <point x="429" y="397"/>
      <point x="428" y="352"/>
      <point x="420.0" y="330.0" type="qcurve" smooth="yes" name="inserted"/>
      <point x="412" y="308" name="fh15"/>
      <point x="380" y="271" name="fh16"/>
      <point x="358" y="258" type="qcurve" name="fh17"/>
      <point x="332" y="243" name="sv03"/>
      <point x="276" y="242"/>
      <point x="253" y="254" type="qcurve" name="ih02"/>
      <point x="298" y="152" type="line" name="sh07"/>
      <point x="320" y="100"/>
      <point x="313" y="46"/>
      <point x="297" y="30" type="qcurve"/>
      <point x="283" y="14" name="fh18"/>
      <point x="236" y="-9" name="fh19"/>
      <point x="218" y="-18" type="qcurve" name="av02"/>
      <point x="216" y="-12"/>
      <point x="210" y="0"/>
      <point x="207" y="6" type="qcurve" name="sh08"/>
      <point x="221" y="13"/>
      <point x="245" y="26" name="fv02"/>
      <point x="259" y="33" type="qcurve" name="fh20"/>
      <point x="287" y="48"/>
      <point x="289" y="101"/>
    </contour>
  </outline>
</glyph>
<glyph name="dieresis" format="1">
  <advance width="370"/>
  <unicode hex="00A8"/>
  <outline>
    <contour>
      <point x="244" y="504" type="qcurve" name="sh01"/>
      <point x="246" y="515"/>
      <point x="263" y="531"/>
      <point x="274" y="531" type="qcurve" name="sv02"/>
      <point x="285" y="531"/>
      <point x="298" y="515"/>
      <point x="296" y="504" type="qcurve" name="sh02"/>
      <point x="294" y="493"/>
      <point x="278" y="478"/>
      <point x="267" y="478" type="qcurve" name="sv03"/>
      <point x="256" y="478"/>
      <point x="242" y="493"/>
    </contour>
    <contour>
      <point x="78" y="504" type="qcurve" name="ah01"/>
      <point x="80" y="515"/>
      <point x="98" y="531"/>
      <point x="109" y="531" type="qcurve" name="sv01"/>
      <point x="119" y="531"/>
      <point x="133" y="515"/>
      <point x="131" y="504" type="qcurve" name="sh03"/>
      <point x="129" y="493"/>
      <point x="113" y="478"/>
      <point x="102" y="478" type="qcurve" name="av01"/>
      <point x="91" y="478"/>
      <point x="77" y="493"/>
    </contour>
  </outline>
</glyph>
<glyph name="ordfeminine" format="1">
  <advance width="585"/>
  <unicode hex="00AA"/>
  <outline>
    <contour>
      <point x="103" y="442" type="qcurve" name="dh01"/>
      <point x="107" y="470" name="fh01"/>
      <point x="136" y="522" name="fh02"/>
      <point x="157.5" y="541.0" type="qcurve" smooth="yes" name="inserted"/>
      <point x="179" y="560" name="fh03"/>
      <point x="234" y="582"/>
      <point x="264" y="582" type="qcurve" name="sv01"/>
      <point x="285" y="582"/>
      <point x="322" y="570" name="fv01"/>
      <point x="336.5" y="559.0" type="qcurve" smooth="yes" name="inserted"/>
      <point x="351" y="548" name="fh04"/>
      <point x="371" y="519"/>
      <point x="375" y="504" type="qcurve" name="ih01"/>
      <point x="378" y="522"/>
      <point x="385" y="558"/>
      <point x="388" y="576" type="qcurve" name="sh01"/>
      <point x="404" y="576" type="line" name="dh02"/>
      <point x="368" y="325" type="line" name="sh03"/>
      <point x="422" y="325" type="line" name="sh04"/>
      <point x="419" y="306" type="line"/>
      <point x="347" y="306" type="line" name="sh02"/>
      <point x="352" y="340" type="line"/>
      <point x="354" y="350"/>
      <point x="357" y="369"/>
      <point x="358" y="380" type="qcurve" name="ih02"/>
      <point x="349" y="364"/>
      <point x="322" y="335"/>
      <point x="304.5" y="324.0" type="qcurve" smooth="yes" name="inserted"/>
      <point x="287" y="313"/>
      <point x="246" y="301"/>
      <point x="224" y="301" type="qcurve" name="av01"/>
      <point x="194" y="301"/>
      <point x="146" y="323"/>
      <point x="130.0" y="342.0" type="qcurve" smooth="yes" name="inserted"/>
      <point x="114" y="361"/>
      <point x="98" y="412"/>
    </contour>
    <contour>
      <point x="123" y="442" type="qcurve" name="sh05"/>
      <point x="119" y="416"/>
      <point x="132" y="372" name="fh05"/>
      <point x="146.0" y="356.0" type="qcurve" smooth="yes" name="inserted"/>
      <point x="160" y="340" name="fh06"/>
      <point x="201" y="321"/>
      <point x="226" y="321" type="qcurve" name="sv02"/>
      <point x="251" y="321"/>
      <point x="299" y="340" name="fh07"/>
      <point x="317.5" y="356.0" type="qcurve" smooth="yes" name="inserted"/>
      <point x="336" y="372" name="fh08"/>
      <point x="362" y="416"/>
      <point x="365" y="442" type="qcurve" name="ih03"/>
      <point x="369" y="467"/>
      <point x="356" y="511" name="fh09"/>
      <point x="342.0" y="527.5" type="qcurve" smooth="yes" name="inserted"/>
      <point x="328" y="544" name="fh10"/>
      <point x="286" y="563"/>
      <point x="261" y="563" type="qcurve" name="sv03"/>
      <point x="235" y="563"/>
      <point x="189" y="544"/>
      <point x="170.0" y="527.5" type="qcurve" smooth="yes" name="inserted"/>
      <point x="151" y="511" name="fh11"/>
      <point x="127" y="467"/>
    </contour>
  </outline>
</glyph>
<glyph name="registered" format="1">
  <advance width="801"/>
  <unicode hex="00AE"/>
  <outline>
    <contour>
      <point x="401" y="135" type="qcurve" name="sv01"/>
      <point x="450" y="135"/>
      <point x="543" y="171" name="fh01"/>
      <point x="579.5" y="202.5" type="qcurve" smooth="yes" name="inserted"/>
      <point x="616" y="234" name="fh02"/>
      <point x="666" y="321"/>
      <point x="673" y="371" type="qcurve" name="sh02"/>
      <point x="680" y="423"/>
      <point x="655" y="510" name="fh03"/>
      <point x="627.0" y="542.0" type="qcurve" smooth="yes" name="inserted"/>
      <point x="599" y="574" name="fh04"/>
      <point x="517" y="610" name="fh05"/>
      <point x="468" y="610" type="qcurve" name="sv02"/>
      <point x="419" y="610"/>
      <point x="328" y="574" name="fh06"/>
      <point x="291.5" y="542.0" type="qcurve" smooth="yes" name="inserted"/>
      <point x="255" y="510" name="fh07"/>
      <point x="205" y="423"/>
      <point x="198" y="371" type="qcurve" name="sh03"/>
      <point x="191" y="321"/>
      <point x="216" y="234" name="fh08"/>
      <point x="243.5" y="202.5" type="qcurve" smooth="yes" name="inserted"/>
      <point x="271" y="171" name="fh09"/>
      <point x="352" y="135"/>
    </contour>
    <contour>
      <point x="400" y="117" type="qcurve" name="av02"/>
      <point x="346" y="117"/>
      <point x="258" y="155" name="fh10"/>
      <point x="228.0" y="189.0" type="qcurve" smooth="yes" name="inserted"/>
      <point x="198" y="223" name="fh11"/>
      <point x="171" y="317"/>
      <point x="179" y="372" type="qcurve" name="ah01"/>
      <point x="187" y="427"/>
      <point x="240" y="521"/>
      <point x="279.0" y="555.5" type="qcurve" smooth="yes" name="inserted"/>
      <point x="318" y="590"/>
      <point x="417" y="628" name="fh12"/>
      <point x="471" y="628" type="qcurve" name="av01"/>
      <point x="525" y="628"/>
      <point x="613" y="590" name="fh13"/>
      <point x="643.0" y="555.5" type="qcurve" smooth="yes" name="inserted"/>
      <point x="673" y="521" name="fh14"/>
      <point x="700" y="427"/>
      <point x="692" y="372" type="qcurve" name="sh01"/>
      <point x="684" y="317"/>
      <point x="632" y="223" name="fh15"/>
      <point x="592.5" y="189.0" type="qcurve" smooth="yes" name="inserted"/>
      <point x="553" y="155" name="fv01"/>
      <point x="454" y="117"/>
    </contour>
    <contour>
      <point x="312" y="223" type="line"/>
      <point x="343" y="223" type="line" name="sh04"/>
      <point x="386" y="528" type="line" name="sh05"/>
      <point x="355" y="528" type="line" name="sh06"/>
      <point x="357" y="541" type="line"/>
      <point x="456" y="541" type="line" name="sv04"/>
      <point x="470" y="541"/>
      <point x="503" y="532" name="fh16"/>
      <point x="516.5" y="521.5" type="qcurve" smooth="yes" name="inserted"/>
      <point x="530" y="511" name="fh17"/>
      <point x="545" y="479"/>
      <point x="542" y="456" type="qcurve" name="sh07"/>
      <point x="537" y="422" name="fh18"/>
      <point x="495" y="378" name="fh19"/>
      <point x="459" y="371" type="qcurve" name="ih01"/>
      <point x="507" y="223" type="line" name="sh08"/>
      <point x="548" y="223" type="line" name="sh11"/>
      <point x="547" y="210" type="line"/>
      <point x="499" y="210" type="line" name="sh10"/>
      <point x="445" y="370" type="line" name="sh09"/>
      <point x="440" y="369"/>
      <point x="428" y="368"/>
      <point x="423" y="368" type="qcurve"/>
      <point x="377" y="368" type="line" name="sv06"/>
      <point x="356" y="223" type="line" name="sh12"/>
      <point x="401" y="223" type="line" name="sh13"/>
      <point x="399" y="210" type="line" name="sv03"/>
      <point x="311" y="210" type="line" name="sh14"/>
    </contour>
    <contour>
      <point x="379" y="381" type="line" name="iv01"/>
      <point x="430" y="381" type="line"/>
      <point x="456" y="381"/>
      <point x="493" y="395" name="fh20"/>
      <point x="504.5" y="406.5" type="qcurve" smooth="yes" name="inserted"/>
      <point x="516" y="418"/>
      <point x="527" y="444"/>
      <point x="529" y="456" type="qcurve" name="sh15"/>
      <point x="533" y="485"/>
      <point x="489" y="528"/>
      <point x="451" y="528" type="qcurve" name="sv05"/>
      <point x="399" y="528" type="line" name="sh16"/>
    </contour>
  </outline>
</glyph>
<glyph name="degree" format="1">
  <advance width="282"/>
  <unicode hex="00B0"/>
  <outline>
    <contour>
      <point x="140" y="501" type="qcurve" name="sv01"/>
      <point x="165" y="501"/>
      <point x="204" y="534"/>
      <point x="208" y="560" type="qcurve" name="sh02"/>
      <point x="212" y="585"/>
      <point x="182" y="619"/>
      <point x="157" y="619" type="qcurve" name="sv03"/>
      <point x="132" y="619"/>
      <point x="92" y="585"/>
      <point x="89" y="560" type="qcurve" name="sh03"/>
      <point x="85" y="534"/>
      <point x="115" y="501"/>
    </contour>
    <contour>
      <point x="67" y="559" type="qcurve" name="ah01"/>
      <point x="72" y="594"/>
      <point x="125" y="641"/>
      <point x="160" y="641" type="qcurve" name="sv02"/>
      <point x="194" y="641"/>
      <point x="234" y="594"/>
      <point x="230" y="559" type="qcurve" name="sh01"/>
      <point x="225" y="525"/>
      <point x="172" y="479"/>
      <point x="138" y="479" type="qcurve" name="av01"/>
      <point x="103" y="479"/>
      <point x="62" y="525"/>
    </contour>
  </outline>
</glyph>
<glyph name="plusminus" format="1">
  <advance width="524"/>
  <unicode hex="00B1"/>
  <outline>
    <contour>
      <point x="263" y="211" type="line" name="ah01"/>
      <point x="286" y="378" type="line" name="ih01"/>
      <point x="120" y="378" type="line" name="sh02"/>
      <point x="124" y="405" type="line"/>
      <point x="290" y="405" type="line" name="ih02"/>
      <point x="314" y="571" type="line" name="sh01"/>
      <point x="342" y="571" type="line" name="sh04"/>
      <point x="318" y="405" type="line" name="ih03"/>
      <point x="484" y="405" type="line" name="sh05"/>
      <point x="480" y="378" type="line"/>
      <point x="314" y="378" type="line" name="ih04"/>
      <point x="291" y="211" type="line" name="sh03"/>
    </contour>
    <contour>
      <point x="446" y="129" type="line"/>
      <point x="86" y="129" type="line" name="sh06"/>
      <point x="89" y="156" type="line" name="sv01"/>
      <point x="449" y="156" type="line" name="sh07"/>
    </contour>
  </outline>
</glyph>
<glyph name="acute" format="1">
  <advance width="229"/>
  <unicode hex="00B4"/>
  <outline>
    <contour>
      <point x="100" y="479" type="line" name="ah01"/>
      <point x="127" y="512"/>
      <point x="181" y="579"/>
      <point x="208" y="612" type="qcurve" name="sh02"/>
      <point x="238" y="612" type="line" name="sh01"/>
      <point x="209" y="579"/>
      <point x="153" y="512"/>
      <point x="125" y="479" type="qcurve" name="sh03"/>
    </contour>
  </outline>
</glyph>
<glyph name="mu" format="1">
  <advance width="527"/>
  <unicode hex="00B5"/>
  <outline>
    <contour>
      <point x="394" y="375" type="line" name="sv01"/>
      <point x="498" y="375" type="line" name="dh02"/>
      <point x="450" y="25" type="line" name="sh01"/>
      <point x="524" y="25" type="line" name="sh04"/>
      <point x="520" y="0" type="line"/>
      <point x="425" y="0" type="line" name="sh03"/>
      <point x="429" y="53" type="line"/>
      <point x="435" y="98" type="line" name="ih01"/>
      <point x="408" y="50" name="fh01"/>
      <point x="311" y="-7" name="fv01"/>
      <point x="255" y="-7" type="qcurve" name="ab01"/>
      <point x="224" y="-7" name="fv02"/>
      <point x="181" y="17" name="fh02"/>
      <point x="171" y="39" type="qcurve" name="ih02"/>
      <point x="138" y="-201" type="line" name="sh05"/>
      <point x="110" y="-201" type="line" name="dh01"/>
      <point x="186" y="348" type="line" name="sh07"/>
      <point x="110" y="348" type="line" name="sh08"/>
      <point x="114" y="375" type="line" name="at01"/>
      <point x="218" y="375" type="line" name="sh06"/>
      <point x="181" y="107" type="line" name="ih03"/>
      <point x="177" y="72" name="fh03"/>
      <point x="217" y="22"/>
      <point x="260" y="20" type="qcurve" name="sv02"/>
      <point x="292" y="20"/>
      <point x="353" y="41" name="fh04"/>
      <point x="378.0" y="60.0" type="qcurve" smooth="yes" name="inserted"/>
      <point x="403" y="79"/>
      <point x="436" y="132"/>
      <point x="441" y="163" type="qcurve" name="ih04"/>
      <point x="466" y="348" type="line" name="sh02"/>
      <point x="390" y="348" type="line" name="sh09"/>
    </contour>
  </outline>
</glyph>
<glyph name="paragraph" format="1">
  <advance width="501"/>
  <unicode hex="00B6"/>
  <outline>
    <contour>
      <point x="229" y="0" type="line" name="sh01"/>
      <point x="201" y="0" type="line" name="dh01"/>
      <point x="260" y="423" type="line" name="sh02"/>
      <point x="226" y="423"/>
      <point x="170" y="448"/>
      <point x="151.0" y="470.0" type="qcurve" smooth="yes" name="inserted"/>
      <point x="132" y="492"/>
      <point x="115" y="552"/>
      <point x="120" y="586" type="qcurve" name="sh03"/>
      <point x="125" y="620"/>
      <point x="159" y="680" name="fh01"/>
      <point x="184.0" y="702.0" type="qcurve" smooth="yes" name="inserted"/>
      <point x="209" y="724"/>
      <point x="272" y="750"/>
      <point x="306" y="750" type="qcurve" name="at01"/>
      <point x="597" y="750" type="line" name="sh05"/>
      <point x="593" y="725" type="line"/>
      <point x="493" y="725" type="line" name="dh02"/>
      <point x="394" y="25" type="line" name="sh06"/>
      <point x="495" y="25" type="line" name="sh08"/>
      <point x="492" y="0" type="line"/>
      <point x="364" y="0" type="line" name="sh07"/>
      <point x="465" y="725" type="line" name="sh04"/>
      <point x="330" y="725" type="line" name="sh09"/>
    </contour>
  </outline>
</glyph>
<glyph name="periodcentered" format="1">
  <advance width="164"/>
  <unicode hex="00B7"/>
  <outline>
    <contour>
      <point x="59" y="280" type="qcurve" name="ah01"/>
      <point x="61" y="291"/>
      <point x="78" y="307"/>
      <point x="89" y="307" type="qcurve" name="sv01"/>
      <point x="100" y="307"/>
      <point x="114" y="291"/>
      <point x="112" y="280" type="qcurve" name="sh01"/>
      <point x="110" y="269"/>
      <point x="93" y="254"/>
      <point x="82" y="254" type="qcurve" name="av01"/>
      <point x="71" y="254"/>
      <point x="57" y="269"/>
    </contour>
  </outline>
</glyph>
<glyph name="cedilla" format="1">
  <advance width="452"/>
  <unicode hex="00B8"/>
  <outline>
    <contour>
      <point x="223" y="0" type="line" name="sh01"/>
      <point x="244" y="0" type="line" name="sh02"/>
      <point x="243" y="-6" type="line"/>
      <point x="241" y="-20"/>
      <point x="247" y="-37"/>
      <point x="252.5" y="-43.0" type="qcurve" smooth="yes" name="inserted"/>
      <point x="258" y="-49"/>
      <point x="271" y="-57"/>
      <point x="277" y="-61" type="qcurve"/>
      <point x="297" y="-76" name="fh01"/>
      <point x="311" y="-114"/>
      <point x="308" y="-130" type="qcurve" name="ah01"/>
      <point x="301" y="-180" name="fh02"/>
      <point x="244" y="-228" name="fh03"/>
      <point x="207" y="-228" type="qcurve" name="av01"/>
      <point x="179" y="-228"/>
      <point x="135" y="-198"/>
      <point x="130" y="-167" type="qcurve" name="sh03"/>
      <point x="135" y="-165"/>
      <point x="146" y="-161"/>
      <point x="151" y="-159" type="qcurve" name="sh04"/>
      <point x="154" y="-179"/>
      <point x="184" y="-205"/>
      <point x="208" y="-205" type="qcurve" name="sv01"/>
      <point x="237" y="-205"/>
      <point x="280" y="-165"/>
      <point x="284" y="-136" type="qcurve" name="sh05"/>
      <point x="288" y="-110"/>
      <point x="267" y="-81"/>
      <point x="253.5" y="-70.5" type="qcurve" smooth="yes" name="inserted"/>
      <point x="240" y="-60"/>
      <point x="217" y="-39"/>
      <point x="220" y="-20" type="qcurve"/>
    </contour>
  </outline>
</glyph>
<glyph name="onesuperior" format="1">
  <advance width="254"/>
  <unicode hex="00B9"/>
  <outline>
    <contour>
      <point x="59" y="413" type="line" name="sv01"/>
      <point x="96" y="413" type="line" name="ah01"/>
      <point x="134" y="688" type="line" name="sh01"/>
      <point x="86" y="688" type="line" name="sh02"/>
      <point x="88" y="700" type="line" name="at01"/>
      <point x="149" y="700" type="line" name="sh04"/>
      <point x="109" y="413" type="line" name="sh03"/>
      <point x="145" y="413" type="line" name="sh05"/>
      <point x="144" y="401" type="line"/>
      <point x="57" y="401" type="line" name="sh06"/>
    </contour>
  </outline>
</glyph>
<glyph name="ordmasculine" format="1">
  <advance width="469"/>
  <unicode hex="00BA"/>
  <outline>
    <contour>
      <point x="110" y="442" type="qcurve" name="dh01"/>
      <point x="115" y="470" name="fh01"/>
      <point x="144" y="522" name="fh02"/>
      <point x="165.5" y="541.5" type="qcurve" smooth="yes" name="inserted"/>
      <point x="187" y="561" name="fh03"/>
      <point x="241" y="583"/>
      <point x="271" y="583" type="qcurve" name="sv01"/>
      <point x="300" y="583"/>
      <point x="348" y="561"/>
      <point x="365.0" y="541.5" type="qcurve" smooth="yes" name="inserted"/>
      <point x="382" y="522"/>
      <point x="397" y="470"/>
      <point x="393" y="442" type="qcurve" name="dh02"/>
      <point x="389" y="412" name="fh04"/>
      <point x="360" y="361" name="fh05"/>
      <point x="338.0" y="342.0" type="qcurve" smooth="yes" name="inserted"/>
      <point x="316" y="323" name="fh06"/>
      <point x="261" y="301"/>
      <point x="232" y="301" type="qcurve" name="av01"/>
      <point x="202" y="301"/>
      <point x="154" y="323"/>
      <point x="137.5" y="342.0" type="qcurve" smooth="yes" name="inserted"/>
      <point x="121" y="361"/>
      <point x="106" y="412"/>
    </contour>
    <contour>
      <point x="131" y="442" type="qcurve" name="sh01"/>
      <point x="127" y="416"/>
      <point x="139" y="372"/>
      <point x="153.0" y="356.0" type="qcurve" smooth="yes" name="inserted"/>
      <point x="167" y="340" name="fh07"/>
      <point x="209" y="321"/>
      <point x="234" y="321" type="qcurve" name="sv02"/>
      <point x="258" y="321"/>
      <point x="305" y="340"/>
      <point x="324.0" y="356.0" type="qcurve" smooth="yes" name="inserted"/>
      <point x="343" y="372"/>
      <point x="369" y="416"/>
      <point x="372" y="442" type="qcurve" name="sh02"/>
      <point x="376" y="467"/>
      <point x="363" y="511" name="fh08"/>
      <point x="349.0" y="527.5" type="qcurve" smooth="yes" name="inserted"/>
      <point x="335" y="544" name="fh09"/>
      <point x="293" y="563"/>
      <point x="268" y="563" type="qcurve" name="sv03"/>
      <point x="242" y="563"/>
      <point x="196" y="544" name="fv01"/>
      <point x="177.5" y="527.5" type="qcurve" smooth="yes" name="inserted"/>
      <point x="159" y="511" name="fh10"/>
      <point x="134" y="467"/>
    </contour>
  </outline>
</glyph>
<glyph name="onehalf" format="1">
  <advance width="1069"/>
  <unicode hex="00BD"/>
  <outline>
    <contour>
      <point x="108" y="253" type="line" name="sv01"/>
      <point x="165" y="253" type="line" name="ah01"/>
      <point x="224" y="676" type="line" name="sh01"/>
      <point x="150" y="676" type="line" name="sh02"/>
      <point x="153" y="695" type="line"/>
      <point x="247" y="695" type="line" name="sh04"/>
      <point x="185" y="253" type="line" name="sh03"/>
      <point x="242" y="253" type="line" name="sh05"/>
      <point x="239" y="234" type="line"/>
      <point x="106" y="234" type="line" name="sh06"/>
    </contour>
    <contour>
      <point x="606" y="19" type="qcurve" name="sh07"/>
      <point x="824" y="19" type="line" name="sh10"/>
      <point x="836" y="96" type="line" name="sh09"/>
      <point x="855" y="96" type="line" name="sh08"/>
      <point x="841" y="0" type="line" name="sh11"/>
      <point x="554" y="0" type="line" name="dh01"/>
      <point x="606" y="44" name="fh01"/>
      <point x="703" y="129" name="fh02"/>
      <point x="741.5" y="169.0" type="qcurve" smooth="yes" name="inserted"/>
      <point x="780" y="209" name="fh03"/>
      <point x="830" y="284"/>
      <point x="835" y="318" type="qcurve" name="sh12"/>
      <point x="840" y="354"/>
      <point x="826" y="404"/>
      <point x="811.5" y="419.0" type="qcurve" smooth="yes" name="inserted"/>
      <point x="797" y="434" name="fh04"/>
      <point x="761" y="446"/>
      <point x="744" y="446" type="qcurve" name="sv03"/>
      <point x="711" y="446"/>
      <point x="665" y="422"/>
      <point x="650.0" y="405.0" type="qcurve" smooth="yes" name="inserted"/>
      <point x="635" y="388" name="fh05"/>
      <point x="620" y="347"/>
      <point x="617" y="330" type="qcurve" name="sh14"/>
      <point x="614.0" y="305.5" name="inserted"/>
      <point x="623.0" y="265.5"/>
      <point x="635" y="250" type="qcurve" name="sh15"/>
      <point x="621" y="239" type="line" name="sh16"/>
      <point x="607" y="255"/>
      <point x="594" y="301"/>
      <point x="597" y="330" type="qcurve" name="sh13"/>
      <point x="602" y="358"/>
      <point x="626" y="407" name="fh06"/>
      <point x="645.0" y="425.5" type="qcurve" smooth="yes" name="inserted"/>
      <point x="664" y="444" name="fh07"/>
      <point x="715" y="465"/>
      <point x="747" y="465" type="qcurve" name="sv02"/>
      <point x="776" y="465"/>
      <point x="820" y="444" name="fh08"/>
      <point x="834.0" y="425.5" type="qcurve" smooth="yes" name="inserted"/>
      <point x="848" y="407" name="fh09"/>
      <point x="860" y="356"/>
      <point x="855" y="326" type="qcurve" name="dh02"/>
      <point x="850" y="286"/>
      <point x="801" y="208" name="fh10"/>
      <point x="765.5" y="170.0" type="qcurve" smooth="yes" name="inserted"/>
      <point x="730" y="132" name="fh11"/>
      <point x="646" y="56" name="fh12"/>
    </contour>
    <contour>
      <point x="234" y="-19" type="line" name="dh03"/>
      <point x="331" y="171"/>
      <point x="521" y="545"/>
      <point x="618" y="735" type="qcurve" name="sh17"/>
      <point x="646" y="735" type="line" name="dh04"/>
      <point x="549" y="545"/>
      <point x="359" y="171"/>
      <point x="262" y="-19" type="qcurve" name="sh18"/>
    </contour>
  </outline>
</glyph>
<glyph name="threequarters" format="1">
  <advance width="1276"/>
  <unicode hex="00BE"/>
  <outline>
    <contour>
      <point x="220" y="479" type="qcurve" name="ih01"/>
      <point x="402" y="686" type="line" name="sh02"/>
      <point x="217" y="686" type="line" name="sh04"/>
      <point x="210" y="638" type="line" name="sh03"/>
      <point x="189" y="638" type="line" name="ih02"/>
      <point x="199" y="708" type="line" name="sh05"/>
      <point x="446" y="708" type="line" name="sh01"/>
      <point x="274" y="516" type="line" name="sh06"/>
      <point x="308" y="515"/>
      <point x="362" y="491" name="fh01"/>
      <point x="381.0" y="470.0" type="qcurve" smooth="yes" name="inserted"/>
      <point x="400" y="449" name="fh02"/>
      <point x="418" y="392"/>
      <point x="413" y="359" type="qcurve" name="dh02"/>
      <point x="409" y="326"/>
      <point x="375" y="268" name="fh03"/>
      <point x="350.0" y="246.5" type="qcurve" smooth="yes" name="inserted"/>
      <point x="325" y="225" name="fh04"/>
      <point x="264" y="200"/>
      <point x="231" y="200" type="qcurve" name="sv01"/>
      <point x="196" y="200"/>
      <point x="140" y="228"/>
      <point x="122" y="252" type="qcurve" name="dh01"/>
      <point x="140" y="269" type="line" name="sh07"/>
      <point x="154" y="248"/>
      <point x="202" y="221"/>
      <point x="232" y="221" type="qcurve" name="sv02"/>
      <point x="261" y="221"/>
      <point x="315" y="243" name="fh05"/>
      <point x="336.5" y="262.0" type="qcurve" smooth="yes" name="inserted"/>
      <point x="358" y="281" name="fh06"/>
      <point x="388" y="331"/>
      <point x="392" y="359" type="qcurve" name="sh08"/>
      <point x="396" y="387"/>
      <point x="380" y="438" name="fh07"/>
      <point x="363.5" y="456.5" type="qcurve" smooth="yes" name="inserted"/>
      <point x="347" y="475" name="fh08"/>
      <point x="299" y="496"/>
      <point x="271" y="496" type="qcurve" name="sv03"/>
      <point x="257" y="496"/>
      <point x="232" y="487"/>
    </contour>
    <contour>
      <point x="404" y="-19" type="line" name="dh05"/>
      <point x="501" y="171"/>
      <point x="691" y="546"/>
      <point x="788" y="736" type="qcurve" name="sh09"/>
      <point x="816" y="736" type="line" name="dh06"/>
      <point x="719" y="546"/>
      <point x="529" y="171"/>
      <point x="432" y="-19" type="qcurve" name="sh10"/>
    </contour>
    <contour>
      <point x="862" y="20" type="line" name="sv04"/>
      <point x="919" y="20" type="line" name="sh11"/>
      <point x="936" y="136" type="line" name="ih03"/>
      <point x="684" y="136" type="line" name="dh03"/>
      <point x="1006" y="490" type="line" name="sh13"/>
      <point x="959" y="156" type="line" name="ih04"/>
      <point x="1032" y="156" type="line" name="sh14"/>
      <point x="1029" y="136" type="line"/>
      <point x="956" y="136" type="line" name="ih05"/>
      <point x="940" y="20" type="line" name="dh04"/>
      <point x="1002" y="20" type="line" name="sh15"/>
      <point x="999" y="0" type="line"/>
      <point x="859" y="0" type="line" name="sh16"/>
    </contour>
    <contour>
      <point x="977" y="429" type="line" name="sh12"/>
      <point x="729" y="156" type="line" name="sh17"/>
      <point x="939" y="156" type="line" name="ih06"/>
    </contour>
  </outline>
</glyph>
<glyph name="Aring" format="1">
  <advance width="820"/>
  <unicode hex="00C5"/>
  <outline>
    <contour>
      <point x="475" y="834" type="qcurve" name="sh03"/>
      <point x="473" y="816"/>
      <point x="495" y="789"/>
      <point x="514" y="789" type="qcurve" name="sv02"/>
      <point x="532" y="789"/>
      <point x="564" y="816"/>
      <point x="566" y="834" type="qcurve" name="sh04"/>
      <point x="569" y="853"/>
      <point x="545" y="880"/>
      <point x="527" y="880" type="qcurve" name="sv04"/>
      <point x="508" y="880"/>
      <point x="477" y="853"/>
    </contour>
    <contour>
      <point x="453" y="835" type="qcurve" name="sh02"/>
      <point x="457" y="864" name="fh01"/>
      <point x="501" y="902"/>
      <point x="530" y="902" type="qcurve" name="sv03"/>
      <point x="559" y="902"/>
      <point x="592" y="864"/>
      <point x="588" y="835" type="qcurve" name="sh01"/>
      <point x="584" y="806" name="fh02"/>
      <point x="541" y="767"/>
      <point x="512" y="767" type="qcurve" name="sv01"/>
      <point x="483" y="767"/>
      <point x="448" y="806"/>
    </contour>
    <contour>
      <point x="38" y="27" type="line" name="sv05"/>
      <point x="114" y="27" type="line" name="dh01"/>
      <point x="214" y="204" name="fh03"/>
      <point x="412" y="554"/>
      <point x="512" y="732" type="qcurve" name="ih01"/>
      <point x="563" y="554"/>
      <point x="662" y="204"/>
      <point x="712" y="27" type="qcurve" name="dh02"/>
      <point x="788" y="27" type="line" name="sh05"/>
      <point x="785" y="0" type="line"/>
      <point x="601" y="0" type="line" name="sh07"/>
      <point x="604" y="27" type="line" name="sv06"/>
      <point x="683" y="27" type="line" name="sh06"/>
      <point x="663" y="97"/>
      <point x="624" y="237"/>
      <point x="604" y="308" type="qcurve" name="ih02"/>
      <point x="302" y="308" type="line" name="ih03"/>
      <point x="262" y="237" name="fh04"/>
      <point x="184" y="97" name="fh05"/>
      <point x="143" y="27" type="qcurve" name="sh09"/>
      <point x="222" y="27" type="line" name="sh10"/>
      <point x="219" y="0" type="line"/>
      <point x="35" y="0" type="line" name="sh11"/>
    </contour>
    <contour>
      <point x="509" y="643" type="line"/>
      <point x="504" y="670" type="line" name="sh08"/>
      <point x="503" y="668"/>
      <point x="498" y="660"/>
      <point x="496" y="655" type="qcurve"/>
      <point x="490" y="643" type="line"/>
      <point x="453" y="573" name="fh06"/>
      <point x="362" y="413"/>
      <point x="318" y="335" type="qcurve" name="ih04"/>
      <point x="596" y="335" type="line" name="ih05"/>
    </contour>
  </outline>
</glyph>
<glyph name="AE" format="1">
  <advance width="775"/>
  <unicode hex="00C6"/>
  <outline>
    <contour>
      <point x="775" y="546" type="line" name="sh02"/>
      <point x="794" y="673" type="line" name="sh03"/>
      <point x="522" y="673" type="line" name="sh05"/>
      <point x="479" y="366" type="line" name="ih02"/>
      <point x="738" y="366" type="line" name="sh06"/>
      <point x="734" y="339" type="line"/>
      <point x="475" y="339" type="line" name="ih03"/>
      <point x="431" y="27" type="line" name="sh04"/>
      <point x="716" y="27" type="line" name="sh09"/>
      <point x="734" y="154" type="line" name="sh08"/>
      <point x="761" y="154" type="line" name="sh07"/>
      <point x="740" y="0" type="line" name="sh10"/>
      <point x="400" y="0" type="line" name="ih01"/>
      <point x="443" y="306" type="line" name="ih04"/>
      <point x="302" y="306" type="line" name="ih05"/>
      <point x="262" y="235"/>
      <point x="184" y="96"/>
      <point x="144" y="27" type="qcurve" name="sh12"/>
      <point x="222" y="27" type="line" name="sh13"/>
      <point x="219" y="0" type="line" name="sv01"/>
      <point x="35" y="0" type="line" name="sh14"/>
      <point x="38" y="27" type="line"/>
      <point x="116" y="27" type="line" name="dh01"/>
      <point x="212" y="196"/>
      <point x="400" y="530"/>
      <point x="495" y="700" type="qcurve" name="sh15"/>
      <point x="824" y="700" type="line" name="dh02"/>
      <point x="802" y="546" type="line" name="sh01"/>
    </contour>
    <contour>
      <point x="446" y="333" type="line" name="ih06"/>
      <point x="490" y="642" type="line" name="sh11"/>
      <point x="450" y="563" name="fh01"/>
      <point x="361" y="411"/>
      <point x="317" y="333" type="qcurve" name="ih07"/>
    </contour>
  </outline>
</glyph>
<glyph name="Eth" format="1">
  <advance width="632"/>
  <unicode hex="00D0"/>
  <outline>
    <contour>
      <point x="95" y="366" type="line"/>
      <point x="154" y="366" type="line" name="ih01"/>
      <point x="197" y="673" type="line" name="sh01"/>
      <point x="129" y="673" type="line" name="sh02"/>
      <point x="133" y="700" type="line"/>
      <point x="343" y="700" type="line" name="at01"/>
      <point x="415" y="700"/>
      <point x="536" y="651" name="fh01"/>
      <point x="577.5" y="605.5" type="qcurve" smooth="yes" name="inserted"/>
      <point x="619" y="560" name="fh02"/>
      <point x="657" y="430"/>
      <point x="646" y="350" type="qcurve" name="dh02"/>
      <point x="637" y="291"/>
      <point x="579" y="167" name="fh03"/>
      <point x="526.0" y="116.0" type="qcurve" smooth="yes" name="inserted"/>
      <point x="473" y="65" name="fh04"/>
      <point x="317" y="0"/>
      <point x="211" y="0" type="qcurve" name="ab01"/>
      <point x="35" y="0" type="line" name="sh03"/>
      <point x="38" y="27" type="line"/>
      <point x="106" y="27" type="line" name="dh01"/>
      <point x="150" y="339" type="line" name="ih02"/>
      <point x="91" y="339" type="line" name="sh04"/>
    </contour>
    <contour>
      <point x="225" y="673" type="line" name="sh06"/>
      <point x="181" y="366" type="line" name="ih03"/>
      <point x="397" y="366" type="line" name="sh07"/>
      <point x="393" y="339" type="line"/>
      <point x="178" y="339" type="line" name="ih04"/>
      <point x="134" y="28" type="line" name="sh05"/>
      <point x="227" y="28" type="line" name="sv02"/>
      <point x="318" y="28"/>
      <point x="457" y="85" name="fh05"/>
      <point x="506.0" y="131.0" type="qcurve" smooth="yes" name="inserted"/>
      <point x="555" y="177" name="fh06"/>
      <point x="611" y="292"/>
      <point x="619" y="350" type="qcurve" name="sh08"/>
      <point x="629" y="424"/>
      <point x="595" y="544" name="fh07"/>
      <point x="556.5" y="586.0" type="qcurve" smooth="yes" name="inserted"/>
      <point x="518" y="628" name="fh08"/>
      <point x="408" y="673"/>
      <point x="342" y="673" type="qcurve" name="sv01"/>
    </contour>
  </outline>
</glyph>
<glyph name="multiply" format="1">
  <advance width="500"/>
  <unicode hex="00D7"/>
  <outline>
    <contour>
      <point x="381" y="0" type="line" name="sh02"/>
      <point x="355" y="29"/>
      <point x="305" y="89"/>
      <point x="279" y="118" type="qcurve" name="ih01"/>
      <point x="245" y="89"/>
      <point x="179" y="29"/>
      <point x="146" y="0" type="qcurve" name="sh03"/>
      <point x="141" y="5"/>
      <point x="132" y="15"/>
      <point x="128" y="20" type="qcurve" name="dh01"/>
      <point x="162" y="49"/>
      <point x="228" y="108"/>
      <point x="262" y="138" type="qcurve" name="sh04"/>
      <point x="162" y="254" type="line" name="sh05"/>
      <point x="185" y="274" type="line" name="sh06"/>
      <point x="285" y="157" type="line" name="sh07"/>
      <point x="318" y="187"/>
      <point x="385" y="245"/>
      <point x="419" y="275" type="qcurve" name="sh08"/>
      <point x="423" y="270"/>
      <point x="432" y="260"/>
      <point x="435" y="255" type="qcurve" name="dh02"/>
      <point x="402" y="226"/>
      <point x="335" y="167"/>
      <point x="301" y="138" type="qcurve" name="sh09"/>
      <point x="327" y="109"/>
      <point x="377" y="49"/>
      <point x="403" y="20" type="qcurve" name="sh01"/>
    </contour>
  </outline>
</glyph>
<glyph name="Oslash" format="1">
  <advance width="786"/>
  <unicode hex="00D8"/>
  <outline>
    <contour>
      <point x="113" y="348" type="qcurve" name="sh01"/>
      <point x="102" y="276"/>
      <point x="140" y="154" name="fh01"/>
      <point x="181" y="109" type="qcurve" name="ih01"/>
      <point x="306" y="237"/>
      <point x="552" y="486"/>
      <point x="677" y="614" type="qcurve" name="ih02"/>
      <point x="639" y="646" name="fh02"/>
      <point x="544" y="681"/>
      <point x="488" y="681" type="qcurve" name="sv02"/>
      <point x="420" y="681"/>
      <point x="293" y="628" name="fh03"/>
      <point x="242.0" y="583.0" type="qcurve" smooth="yes" name="inserted"/>
      <point x="191" y="538" name="fh04"/>
      <point x="122" y="417" name="fv01"/>
    </contour>
    <contour>
      <point x="393" y="19" type="qcurve" name="sv01"/>
      <point x="461" y="19"/>
      <point x="590" y="71" name="fh05"/>
      <point x="641.5" y="116.0" type="qcurve" smooth="yes" name="inserted"/>
      <point x="693" y="161" name="fh06"/>
      <point x="763" y="281" name="fh07"/>
      <point x="773" y="349" type="qcurve" name="sh02"/>
      <point x="784" y="424"/>
      <point x="739" y="552" name="fh08"/>
      <point x="693" y="598" type="qcurve" name="ih03"/>
      <point x="568" y="471"/>
      <point x="323" y="220"/>
      <point x="198" y="93" type="qcurve" name="ih04"/>
      <point x="236" y="58" name="fh09"/>
      <point x="334" y="19"/>
    </contour>
    <contour>
      <point x="85" y="349" type="qcurve" name="dh01"/>
      <point x="95" y="423"/>
      <point x="170" y="554" name="fh10"/>
      <point x="225.0" y="602.5" type="qcurve" smooth="yes" name="inserted"/>
      <point x="280" y="651" name="fh11"/>
      <point x="418" y="708"/>
      <point x="492" y="708" type="qcurve" name="at01"/>
      <point x="553" y="708"/>
      <point x="657" y="670"/>
      <point x="698" y="635" type="qcurve" name="ih05"/>
      <point x="717" y="654"/>
      <point x="753" y="691"/>
      <point x="771" y="710" type="qcurve" name="sv03"/>
      <point x="776" y="705"/>
      <point x="783" y="698"/>
      <point x="788" y="694" type="qcurve" name="sh03"/>
      <point x="769" y="675"/>
      <point x="733" y="639"/>
      <point x="715" y="620" type="qcurve" name="ih06"/>
      <point x="765" y="570" name="fh12"/>
      <point x="812" y="430"/>
      <point x="801" y="349" type="qcurve" name="dh02"/>
      <point x="790" y="275"/>
      <point x="716" y="145" name="fh13"/>
      <point x="660.5" y="96.5" type="qcurve" smooth="yes" name="inserted"/>
      <point x="605" y="48" name="fh14"/>
      <point x="466" y="-8"/>
      <point x="392" y="-8" type="qcurve" name="ab01"/>
      <point x="328" y="-8"/>
      <point x="219" y="34"/>
      <point x="178" y="72" type="qcurve" name="ih07"/>
      <point x="158" y="52"/>
      <point x="118" y="10"/>
      <point x="98" y="-10" type="qcurve" name="sv04"/>
      <point x="93" y="-5"/>
      <point x="85" y="2"/>
      <point x="82" y="7" type="qcurve" name="sh04"/>
      <point x="102" y="27"/>
      <point x="142" y="69"/>
      <point x="162" y="89" type="qcurve" name="ih08"/>
      <point x="116" y="137" name="fh15"/>
      <point x="74" y="271"/>
    </contour>
  </outline>
</glyph>
<glyph name="germandbls" format="1">
  <advance width="545"/>
  <unicode hex="00DF"/>
  <outline>
    <contour>
      <point x="40" y="27" type="line" name="sv01"/>
      <point x="118" y="27" type="line" name="dh01"/>
      <point x="165" y="363" type="line" name="ih01"/>
      <point x="101" y="363" type="line" name="sh02"/>
      <point x="105" y="390" type="line"/>
      <point x="169" y="390" type="line" name="ih02"/>
      <point x="173" y="425" type="line" name="sh01"/>
      <point x="181" y="480"/>
      <point x="224" y="566" name="fh01"/>
      <point x="254.0" y="595.5" type="qcurve" smooth="yes" name="inserted"/>
      <point x="284" y="625" name="fh02"/>
      <point x="358" y="657"/>
      <point x="396" y="658" type="qcurve" name="at01"/>
      <point x="426" y="657"/>
      <point x="475" y="634" name="fh03"/>
      <point x="492.0" y="614.0" type="qcurve" smooth="yes" name="inserted"/>
      <point x="509" y="594" name="fh04"/>
      <point x="524" y="541"/>
      <point x="520" y="511" type="qcurve" name="sh03"/>
      <point x="514" y="469"/>
      <point x="459" y="405"/>
      <point x="420" y="389" type="qcurve" name="ih04"/>
      <point x="450" y="380"/>
      <point x="498" y="344" name="fh05"/>
      <point x="514.0" y="319.0" type="qcurve" smooth="yes" name="inserted"/>
      <point x="530" y="294" name="fh06"/>
      <point x="543" y="232"/>
      <point x="539" y="198" type="qcurve" name="dh02"/>
      <point x="533" y="155" name="fh07"/>
      <point x="490" y="80" name="fh08"/>
      <point x="457.5" y="52.0" type="qcurve" smooth="yes" name="inserted"/>
      <point x="425" y="24" name="fh09"/>
      <point x="345" y="-8"/>
      <point x="303" y="-8" type="qcurve" name="ab01"/>
      <point x="274" y="-8"/>
      <point x="224" y="6"/>
      <point x="204" y="19" type="qcurve" name="ih05"/>
      <point x="219" y="43" type="line" name="sv02"/>
      <point x="237.0" y="30.5" name="inserted"/>
      <point x="279.5" y="18.0"/>
      <point x="304" y="18" type="qcurve" name="sv03"/>
      <point x="341" y="18"/>
      <point x="412" y="47" name="fv01"/>
      <point x="440.0" y="71.5" type="qcurve" smooth="yes" name="inserted"/>
      <point x="468" y="96"/>
      <point x="506" y="162"/>
      <point x="511" y="198" type="qcurve" name="sh04"/>
      <point x="516" y="234"/>
      <point x="496" y="297"/>
      <point x="475.0" y="321.0" type="qcurve" smooth="yes" name="inserted"/>
      <point x="454" y="345"/>
      <point x="393" y="373"/>
      <point x="356" y="373" type="qcurve" name="ih03"/>
      <point x="356.0" y="375.0" name="inserted"/>
      <point x="357.0" y="382.0"/>
      <point x="358" y="387" type="qcurve"/>
      <point x="360" y="401" type="line" name="iv01"/>
      <point x="384" y="401"/>
      <point x="429" y="417"/>
      <point x="446.5" y="431.0" type="qcurve" smooth="yes" name="inserted"/>
      <point x="464" y="445"/>
      <point x="488" y="484"/>
      <point x="491" y="508" type="qcurve" name="sh05"/>
      <point x="494" y="532"/>
      <point x="483" y="576"/>
      <point x="470.5" y="593.0" type="qcurve" smooth="yes" name="inserted"/>
      <point x="458" y="610"/>
      <point x="418" y="630"/>
      <point x="393" y="630" type="qcurve" name="sv04"/>
      <point x="360" y="630"/>
      <point x="297" y="602" name="fv02"/>
      <point x="271.0" y="575.5" type="qcurve" smooth="yes" name="inserted"/>
      <point x="245" y="549" name="fh10"/>
      <point x="208" y="474"/>
      <point x="202" y="428" type="qcurve" name="sh07"/>
      <point x="142" y="0" type="line" name="sh06"/>
      <point x="36" y="0" type="line" name="sh08"/>
    </contour>
  </outline>
</glyph>
<glyph name="ccedilla" format="1">
  <advance width="389"/>
  <unicode hex="00E7"/>
  <outline>
    <contour>
      <point x="333" y="57" type="qcurve" name="sh02"/>
      <point x="347" y="36" type="line" name="sh01"/>
      <point x="343" y="33"/>
      <point x="306" y="16"/>
      <point x="285.0" y="7.5" type="qcurve" smooth="yes" name="inserted"/>
      <point x="264" y="-1"/>
      <point x="229" y="-13" name="sh04"/>
      <point x="226" y="-10" type="qcurve"/>
      <point x="223" y="-33"/>
      <point x="248" y="-53"/>
      <point x="260" y="-61" type="qcurve" name="fh01"/>
      <point x="280" y="-76"/>
      <point x="293" y="-114"/>
      <point x="291" y="-130" type="qcurve" name="ih01"/>
      <point x="284" y="-178" name="fh02"/>
      <point x="230" y="-225" name="fh03"/>
      <point x="197" y="-227" type="qcurve" name="av01"/>
      <point x="187.5" y="-228.0" name="inserted"/>
      <point x="170.5" y="-226.5"/>
      <point x="163" y="-224" type="qcurve"/>
      <point x="144" y="-218"/>
      <point x="117" y="-190"/>
      <point x="112" y="-167" type="qcurve" name="sh05"/>
      <point x="135" y="-159" type="line" name="sh06"/>
      <point x="138" y="-179"/>
      <point x="168" y="-205"/>
      <point x="191" y="-205" type="qcurve" name="sv01"/>
      <point x="220" y="-205"/>
      <point x="262" y="-165" name="fh04"/>
      <point x="267" y="-136" type="qcurve" name="sh07"/>
      <point x="270" y="-110"/>
      <point x="249" y="-81"/>
      <point x="235.5" y="-70.5" type="qcurve" smooth="yes" name="inserted"/>
      <point x="222" y="-60"/>
      <point x="200" y="-39"/>
      <point x="203" y="-20" type="qcurve" name="sh03"/>
      <point x="204" y="-5" type="line" name="ab01"/>
      <point x="166" y="-3" name="fv01"/>
      <point x="105" y="29" name="fh05"/>
      <point x="84.5" y="55.0" type="qcurve" smooth="yes" name="inserted"/>
      <point x="64" y="81" name="fh06"/>
      <point x="45" y="149"/>
      <point x="51" y="188" type="qcurve" name="dh01"/>
      <point x="57" y="228"/>
      <point x="97" y="300" name="fh07"/>
      <point x="127.0" y="326.0" type="qcurve" smooth="yes" name="inserted"/>
      <point x="157" y="352" name="fh08"/>
      <point x="232" y="383" name="fh09"/>
      <point x="273" y="383" type="qcurve" name="at01"/>
      <point x="308" y="383"/>
      <point x="368" y="360"/>
      <point x="391" y="340" type="qcurve" name="dh02"/>
      <point x="378" y="247" type="line" name="sh08"/>
      <point x="352" y="247" type="line" name="sh10"/>
      <point x="362" y="324" type="line" name="sh09"/>
      <point x="343" y="339"/>
      <point x="297" y="356"/>
      <point x="269" y="356" type="qcurve" name="sv02"/>
      <point x="234" y="356"/>
      <point x="169" y="330"/>
      <point x="143.0" y="307.0" type="qcurve" smooth="yes" name="inserted"/>
      <point x="117" y="284"/>
      <point x="83" y="223" name="fv02"/>
      <point x="78" y="188" type="qcurve" name="sh11"/>
      <point x="73" y="153"/>
      <point x="90" y="92" name="fh10"/>
      <point x="109.5" y="69.5" type="qcurve" smooth="yes" name="inserted"/>
      <point x="129" y="47" name="fh11"/>
      <point x="187" y="21" name="fv03"/>
      <point x="222" y="21" type="qcurve" name="sv03"/>
      <point x="252" y="21"/>
      <point x="308" y="40"/>
    </contour>
  </outline>
</glyph>
<glyph name="igrave" format="1">
  <advance width="254"/>
  <unicode hex="00EC"/>
  <outline>
    <contour>
      <point x="38" y="27" type="line" name="sv01"/>
      <point x="118" y="27" type="line" name="dh01"/>
      <point x="163" y="348" type="line" name="sh01"/>
      <point x="83" y="348" type="line" name="sh02"/>
      <point x="87" y="375" type="line" name="at01"/>
      <point x="194" y="375" type="line" name="sh03"/>
      <point x="145" y="27" type="line" name="dh02"/>
      <point x="222" y="27" type="line" name="sh04"/>
      <point x="219" y="0" type="line"/>
      <point x="35" y="0" type="line" name="sh05"/>
    </contour>
    <contour>
      <point x="132" y="612" type="line" name="sh08"/>
      <point x="149" y="579"/>
      <point x="182" y="512"/>
      <point x="199" y="479" type="qcurve" name="sh06"/>
      <point x="175" y="479" type="line" name="sh09"/>
      <point x="156" y="512"/>
      <point x="121" y="579"/>
      <point x="104" y="612" type="qcurve" name="sh07"/>
    </contour>
  </outline>
</glyph>
<glyph name="idieresis" format="1">
  <advance width="254"/>
  <unicode hex="00EF"/>
  <outline>
    <contour>
      <point x="38" y="27" type="line" name="sv01"/>
      <point x="118" y="27" type="line" name="dh01"/>
      <point x="163" y="348" type="line" name="sh01"/>
      <point x="83" y="348" type="line" name="sh03"/>
      <point x="87" y="375" type="line" name="at01"/>
      <point x="194" y="375" type="line" name="sh02"/>
      <point x="145" y="27" type="line" name="dh02"/>
      <point x="222" y="27" type="line" name="sh04"/>
      <point x="219" y="0" type="line"/>
      <point x="35" y="0" type="line" name="sh05"/>
    </contour>
    <contour>
      <point x="246" y="504" type="qcurve" name="sh07"/>
      <point x="248" y="515"/>
      <point x="265" y="531"/>
      <point x="276" y="531" type="qcurve" name="sv04"/>
      <point x="287" y="531"/>
      <point x="300" y="515"/>
      <point x="298" y="504" type="qcurve" name="sh06"/>
      <point x="296" y="493"/>
      <point x="280" y="478"/>
      <point x="269" y="478" type="qcurve" name="sv05"/>
      <point x="258" y="478"/>
      <point x="244" y="493"/>
    </contour>
    <contour>
      <point x="80" y="504" type="qcurve" name="sh09"/>
      <point x="82" y="515"/>
      <point x="100" y="531"/>
      <point x="111" y="531" type="qcurve" name="sv03"/>
      <point x="121" y="531"/>
      <point x="135" y="515"/>
      <point x="133" y="504" type="qcurve" name="sh08"/>
      <point x="131" y="493"/>
      <point x="115" y="478"/>
      <point x="104" y="478" type="qcurve" name="sv02"/>
      <point x="93" y="478"/>
      <point x="79" y="493"/>
    </contour>
  </outline>
</glyph>
<glyph name="eth" format="1">
  <advance width="461"/>
  <unicode hex="00F0"/>
  <outline>
    <contour>
      <point x="90" y="188" type="qcurve" name="sh01"/>
      <point x="85" y="153"/>
      <point x="102" y="92" name="fh01"/>
      <point x="121.5" y="69.5" type="qcurve" smooth="yes" name="inserted"/>
      <point x="141" y="47" name="fh02"/>
      <point x="199" y="21"/>
      <point x="234" y="21" type="qcurve" name="sv01"/>
      <point x="269" y="21"/>
      <point x="334" y="48" name="fh03"/>
      <point x="360.0" y="70.5" type="qcurve" smooth="yes" name="inserted"/>
      <point x="386" y="93" name="fh04"/>
      <point x="421" y="154" name="fh05"/>
      <point x="426" y="189" type="qcurve" name="sh02"/>
      <point x="430" y="224"/>
      <point x="412" y="286"/>
      <point x="392.5" y="308.5" type="qcurve" smooth="yes" name="inserted"/>
      <point x="373" y="331" name="fh06"/>
      <point x="315" y="356"/>
      <point x="280" y="356" type="qcurve" name="sv02"/>
      <point x="245" y="356" name="fh07"/>
      <point x="180" y="330" name="fh08"/>
      <point x="154.5" y="307.0" type="qcurve" smooth="yes" name="inserted"/>
      <point x="129" y="284" name="fv01"/>
      <point x="95" y="223"/>
    </contour>
    <contour>
      <point x="203" y="544" type="qcurve" name="sh03"/>
      <point x="223" y="563"/>
      <point x="265" y="602"/>
      <point x="286" y="621" type="qcurve" name="ih03"/>
      <point x="266.5" y="646.0" name="inserted"/>
      <point x="226.0" y="690.5"/>
      <point x="205" y="710" type="qcurve" name="ih02"/>
      <point x="210" y="715"/>
      <point x="219" y="723"/>
      <point x="224" y="728" type="qcurve" name="sh04"/>
      <point x="246" y="710"/>
      <point x="287" y="666"/>
      <point x="307" y="641" type="qcurve" name="ih04"/>
      <point x="326" y="659"/>
      <point x="363" y="694"/>
      <point x="382" y="712" type="qcurve" name="sv03"/>
      <point x="386" y="708"/>
      <point x="393" y="700"/>
      <point x="398" y="696" type="qcurve" name="sh05"/>
      <point x="378" y="678"/>
      <point x="339" y="641"/>
      <point x="320" y="622" type="qcurve" name="ih05"/>
      <point x="353" y="575" name="fh10"/>
      <point x="408" y="468" name="fh11"/>
      <point x="426.5" y="412.0" type="qcurve" smooth="yes" name="inserted"/>
      <point x="445" y="356" name="fh12"/>
      <point x="461" y="243"/>
      <point x="454" y="190" type="qcurve" name="dh02"/>
      <point x="448" y="149" name="fh13"/>
      <point x="408" y="78" name="fh14"/>
      <point x="378.0" y="51.5" type="qcurve" smooth="yes" name="inserted"/>
      <point x="348" y="25" name="fh15"/>
      <point x="272" y="-6"/>
      <point x="232" y="-6" type="qcurve" name="ab01"/>
      <point x="191" y="-6"/>
      <point x="124" y="23" name="fh16"/>
      <point x="101.0" y="49.5" type="qcurve" smooth="yes" name="inserted"/>
      <point x="78" y="76" name="fh17"/>
      <point x="57" y="146"/>
      <point x="62" y="187" type="qcurve" name="dh01"/>
      <point x="67" y="227"/>
      <point x="107" y="299" name="fh18"/>
      <point x="137.0" y="325.5" type="qcurve" smooth="yes" name="inserted"/>
      <point x="167" y="352" name="fh19"/>
      <point x="242" y="384"/>
      <point x="283" y="384" type="qcurve" name="at01"/>
      <point x="328" y="384"/>
      <point x="397" y="344" name="fh20"/>
      <point x="417" y="312" type="qcurve" name="ih01"/>
      <point x="411" y="365" name="fh21"/>
      <point x="358" y="517" name="fh22"/>
      <point x="298" y="602" type="qcurve" name="ih06"/>
      <point x="278" y="583"/>
      <point x="238" y="546"/>
      <point x="218" y="527" type="qcurve" name="iv01"/>
      <point x="214" y="532"/>
      <point x="207" y="539"/>
    </contour>
  </outline>
</glyph>
<glyph name="endash" format="1">
  <advance width="509"/>
  <unicode hex="2013"/>
  <outline>
    <contour>
      <point x="100" y="178" type="line" name="sh01"/>
      <point x="103" y="205" type="line" name="sv01"/>
      <point x="404" y="205" type="line" name="sh02"/>
      <point x="401" y="178" type="line"/>
    </contour>
  </outline>
</glyph>
<glyph name="quoteleft" format="1">
  <advance width="164"/>
  <unicode hex="2018"/>
  <outline>
    <contour>
      <point x="99" y="590" type="qcurve" name="sh01"/>
      <point x="95" y="585"/>
      <point x="87" y="576"/>
      <point x="84" y="571" type="qcurve" name="sv01"/>
      <point x="58" y="597"/>
      <point x="43" y="671"/>
      <point x="57" y="711" type="qcurve" name="ah01"/>
      <point x="64" y="709"/>
      <point x="76" y="706"/>
      <point x="82" y="704" type="qcurve" name="sh02"/>
      <point x="71" y="669"/>
      <point x="81" y="610"/>
    </contour>
  </outline>
</glyph>
<glyph name="quoteright" format="1">
  <advance width="164"/>
  <unicode hex="2019"/>
  <outline>
    <contour>
      <point x="67" y="571" type="qcurve" name="sv01"/>
      <point x="64" y="576"/>
      <point x="59" y="585"/>
      <point x="56" y="590" type="qcurve" name="sh01"/>
      <point x="80" y="610"/>
      <point x="107" y="669"/>
      <point x="105" y="704" type="qcurve" name="sh02"/>
      <point x="112" y="706"/>
      <point x="126" y="709"/>
      <point x="132" y="711" type="qcurve" name="ah01"/>
      <point x="135" y="671"/>
      <point x="99" y="597"/>
    </contour>
  </outline>
</glyph>
<glyph name="quotesinglbase" format="1">
  <advance width="146"/>
  <unicode hex="201A"/>
  <outline>
    <contour>
      <point x="33" y="-48" type="qcurve" name="sv01"/>
      <point x="30.0" y="-43.5" name="inserted"/>
      <point x="24.5" y="-34.0"/>
      <point x="22" y="-29" type="qcurve" name="sh01"/>
      <point x="46" y="-9"/>
      <point x="73" y="50"/>
      <point x="71" y="85" type="qcurve" name="sh02"/>
      <point x="77" y="87"/>
      <point x="91" y="90"/>
      <point x="98" y="92" type="qcurve" name="ah01"/>
      <point x="100" y="52"/>
      <point x="65" y="-22"/>
    </contour>
  </outline>
</glyph>
<glyph name="quotedblleft" format="1">
  <advance width="249"/>
  <unicode hex="201C"/>
  <outline>
    <contour>
      <point x="196" y="590" type="qcurve" name="sh02"/>
      <point x="191" y="585"/>
      <point x="184" y="576"/>
      <point x="181" y="571" type="qcurve" name="sv02"/>
      <point x="155" y="597"/>
      <point x="140" y="671"/>
      <point x="154" y="711" type="qcurve" name="sh01"/>
      <point x="160" y="709"/>
      <point x="173" y="706"/>
      <point x="179" y="704" type="qcurve" name="sh03"/>
      <point x="168" y="669"/>
      <point x="178" y="610"/>
    </contour>
    <contour>
      <point x="92" y="590" type="qcurve" name="sh04"/>
      <point x="87" y="585"/>
      <point x="80" y="576"/>
      <point x="77" y="571" type="qcurve" name="sv01"/>
      <point x="51" y="597"/>
      <point x="36" y="671"/>
      <point x="50" y="711" type="qcurve" name="ah01"/>
      <point x="56" y="709"/>
      <point x="69" y="706"/>
      <point x="75" y="704" type="qcurve" name="sh05"/>
      <point x="64" y="669"/>
      <point x="74" y="610"/>
    </contour>
  </outline>
</glyph>
<glyph name="quotedblright" format="1">
  <advance width="248"/>
  <unicode hex="201D"/>
  <outline>
    <contour>
      <point x="50" y="571" type="qcurve" name="sh03"/>
      <point x="47" y="576"/>
      <point x="42" y="585"/>
      <point x="40" y="590" type="qcurve" name="sh02"/>
      <point x="64" y="610"/>
      <point x="91" y="669"/>
      <point x="89" y="704" type="qcurve" name="sh04"/>
      <point x="95" y="706"/>
      <point x="109" y="709"/>
      <point x="115" y="711" type="qcurve" name="sh01"/>
      <point x="118" y="671"/>
      <point x="82" y="597"/>
    </contour>
    <contour>
      <point x="154" y="571" type="qcurve" name="sh06"/>
      <point x="151" y="576"/>
      <point x="146" y="585"/>
      <point x="144" y="590" type="qcurve" name="sh05"/>
      <point x="168" y="610"/>
      <point x="195" y="669"/>
      <point x="193" y="704" type="qcurve" name="sh07"/>
      <point x="199" y="706"/>
      <point x="213" y="709"/>
      <point x="219" y="711" type="qcurve" name="ah01"/>
      <point x="222" y="671"/>
      <point x="186" y="597"/>
    </contour>
  </outline>
</glyph>
<glyph name="quotedblbase" format="1">
  <advance width="255"/>
  <unicode hex="201E"/>
  <outline>
    <contour>
      <point x="33" y="-48" type="qcurve" name="sh03"/>
      <point x="30.0" y="-43.5" name="inserted"/>
      <point x="24.5" y="-34.0"/>
      <point x="22" y="-29" type="qcurve" name="sh02"/>
      <point x="46" y="-9"/>
      <point x="73" y="50"/>
      <point x="71" y="85" type="qcurve" name="sh04"/>
      <point x="77" y="87"/>
      <point x="91" y="90"/>
      <point x="98" y="92" type="qcurve" name="sh01"/>
      <point x="100" y="52"/>
      <point x="65" y="-22"/>
    </contour>
    <contour>
      <point x="137" y="-48" type="qcurve" name="sh06"/>
      <point x="134.0" y="-43.5" name="inserted"/>
      <point x="128.5" y="-34.0"/>
      <point x="126" y="-29" type="qcurve" name="sh05"/>
      <point x="150" y="-9"/>
      <point x="177" y="50"/>
      <point x="175" y="85" type="qcurve" name="sh07"/>
      <point x="181" y="87"/>
      <point x="195" y="90"/>
      <point x="202" y="92" type="qcurve" name="ah01"/>
      <point x="204" y="52"/>
      <point x="169" y="-22"/>
    </contour>
  </outline>
</glyph>
<glyph name="guilsinglleft" format="1">
  <advance width="392"/>
  <unicode hex="2039"/>
  <outline>
    <contour>
      <point x="288" y="77" type="line" name="av01"/>
      <point x="139" y="239" type="line" name="ah01"/>
      <point x="188" y="280"/>
      <point x="284" y="359"/>
      <point x="333" y="400" type="qcurve" name="sh01"/>
      <point x="329" y="367" type="line" name="sv01"/>
      <point x="292" y="335"/>
      <point x="220" y="271"/>
      <point x="183" y="239" type="qcurve" name="sh02"/>
      <point x="210" y="206"/>
      <point x="265" y="141"/>
      <point x="292" y="109" type="qcurve" name="sh03"/>
    </contour>
  </outline>
</glyph>
